<svg xmlns="http://www.w3.org/2000/svg" viewBox="0 0 1600 420" preserveAspectRatio="xMidYMax slice">
<g fill="none" stroke="#2d4fc4" stroke-linecap="round">
<path stroke-width="1.1" stroke-opacity=".78" d="M1.6 81.7L2.6 111.7 M1.4 156.1L2.1 189.1 M2.6 238.8L2.4 275.9 M2.1 279.9L2.1 300.5 M2.0 303.6L3.0 309.7 M1.6 323.3L1.6 346.2 M3.1 384.2L2.1 412.8 M1.5 415.6L2.5 418.7 M5.6 83.1L6.0 110.9 M6.5 155.3L6.1 188.3 M7.0 238.4L7.4 278.4 M5.5 288.1L5.5 308.6 M6.5 324.2L5.9 345.6 M5.3 383.9L5.9 411.8 M5.7 415.2L5.5 419.3 M10.9 21.7L10.4 31.7 M9.8 82.4L10.1 108.9 M10.3 157.7L10.8 190.2 M10.5 240.3L8.1 299.4 M9.4 302.4L10.1 309.9 M9.6 324.8L9.0 344.9 M10.6 385.6L9.5 418.4 M12.7 17.1L14.3 35.3 M13.4 84.9L14.1 107.1 M15.1 156.2L14.3 179.3 M14.1 183.2L14.9 189.5 M13.6 240.5L13.9 253.6 M14.2 259.5L14.7 273.5 M14.1 286.4L15.4 307.9 M13.7 325.1L12.7 344.9 M14.4 383.9L14.4 419.2 M17.6 9.4L18.6 36.7 M17.9 85.5L18.3 108.3 M17.5 157.6L17.9 190.7 M17.9 240.0L18.0 275.9 M18.5 279.5L18.4 304.3 M17.8 305.9L17.8 307.4 M19.2 326.2L18.0 345.0 M18.2 385.7L17.5 412.5 M18.1 414.9L17.9 418.9 M22.0 0.5L22.1 37.6 M22.0 86.7L22.2 107.3 M21.6 156.7L22.3 189.2 M22.4 239.1L22.5 254.5 M22.0 259.1L21.8 269.4 M21.1 286.0L22.8 308.1 M21.7 326.7L23.0 345.2 M21.8 385.7L22.2 417.9 M26.5 1.4L26.4 36.8 M25.9 87.9L25.5 104.5 M26.0 156.0L25.8 179.5 M26.3 181.1L25.7 189.8 M26.1 238.7L25.7 281.7 M25.5 285.2L25.4 306.6 M26.1 326.0L26.8 345.1 M25.6 383.5L26.1 419.3 M30.2 0.2L28.2 34.4 M30.4 37.5L30.1 42.6 M30.0 90.9L30.7 104.4 M29.2 156.5L29.8 190.5 M30.5 238.6L30.3 257.1 M29.4 279.5L30.2 307.5 M30.3 328.9L29.6 344.3 M29.0 384.3L29.1 419.4 M33.8 0.3L34.0 29.4 M33.8 31.6L34.3 42.5 M33.6 90.3L34.4 103.1 M34.1 158.0L34.2 185.7 M34.3 188.5L33.2 189.3 M33.8 237.2L34.0 269.4 M33.3 272.4L33.9 305.5 M33.7 326.2L33.8 345.3 M33.8 383.5L33.0 419.6 M37.5 2.4L38.5 25.0 M37.7 27.8L38.4 41.5 M37.9 90.7L37.5 103.7 M37.7 157.1L37.5 190.6 M38.2 235.9L37.9 280.3 M38.6 283.6L37.8 305.1 M37.6 327.9L37.1 348.0 M37.8 384.6L37.9 411.1 M37.6 413.4L38.4 419.6 M41.4 2.0L42.3 29.2 M42.3 31.9L41.3 41.9 M41.7 87.4L42.1 104.5 M40.4 159.2L41.8 181.4 M42.2 184.3L41.7 193.2 M42.1 235.9L42.6 261.9 M41.6 264.0L43.2 306.6 M42.2 328.2L41.0 347.8 M42.2 384.6L42.3 418.2 M45.1 0.5L46.1 39.3 M45.6 85.4L45.8 107.4 M46.7 160.0L46.7 193.4 M46.2 233.4L46.1 254.2 M45.4 279.4L47.2 306.0 M45.9 329.6L45.7 347.3 M46.0 384.6L45.8 418.5 M50.4 2.2L50.3 35.8 M49.8 80.7L50.2 108.2 M49.2 161.1L49.7 192.3 M49.6 229.4L50.1 249.5 M50.0 267.3L50.4 304.8 M50.0 329.8L50.1 349.0 M50.6 384.6L49.9 416.0 M54.4 2.1L53.1 31.5 M54.2 78.2L54.6 100.6 M55.1 104.0L54.2 109.2 M54.6 164.8L54.3 192.9 M54.7 228.2L54.3 246.4 M54.0 282.1L54.2 307.3 M54.6 327.4L54.2 348.6 M54.0 384.0L54.8 418.6 M58.5 2.7L57.7 23.7 M56.9 76.6L58.1 109.1 M58.1 166.2L58.3 191.9 M58.3 225.6L56.8 242.2 M57.6 274.7L57.8 306.3 M57.4 330.3L58.0 349.0 M57.9 385.8L58.8 411.2 M58.0 413.7L58.9 418.0 M61.4 76.5L62.0 112.5 M60.9 167.5L63.1 190.0 M62.2 222.6L62.2 241.1 M62.0 284.8L62.4 307.2 M61.8 330.1L61.4 349.1 M62.6 384.3L61.7 404.9 M61.1 407.8L61.8 417.3 M66.4 74.8L66.0 113.0 M65.4 171.2L65.7 187.0 M66.3 218.0L65.5 238.3 M66.1 274.2L64.7 300.3 M66.3 302.1L67.3 307.3 M66.2 329.0L66.4 345.7 M66.0 385.2L66.0 418.2 M70.3 76.7L69.5 112.1 M68.7 176.9L69.5 182.1 M69.4 216.3L70.0 241.0 M69.7 281.4L70.7 309.0 M70.0 331.6L70.0 342.8 M70.3 384.3L69.4 410.8 M70.1 413.2L70.2 418.0 M73.8 75.7L74.4 112.9 M74.1 214.4L74.0 272.4 M74.4 275.8L73.6 309.9 M74.3 331.3L74.1 338.5 M74.1 385.9L73.9 409.8 M73.7 411.4L73.9 417.2 M77.8 77.3L79.0 114.5 M77.8 210.1L77.9 236.4 M77.9 275.5L77.4 311.0 M78.0 384.7L78.3 417.3 M82.0 77.6L82.4 99.0 M82.7 100.7L82.2 116.1 M81.1 206.4L82.0 228.8 M82.4 230.4L83.1 279.9 M81.6 283.8L82.6 308.6 M81.2 383.2L83.2 412.8 M82.4 414.4L83.1 419.0 M85.7 80.6L85.7 109.8 M86.1 112.7L85.8 117.2 M84.6 205.6L86.4 222.1 M86.8 272.7L86.0 310.0 M86.3 384.9L85.4 417.3 M90.0 79.3L90.7 114.1 M90.9 116.7L90.8 118.5 M90.4 201.6L89.1 241.2 M90.0 264.1L89.2 285.1 M90.9 289.4L90.4 309.6 M89.4 385.8L89.3 417.7 M94.2 81.3L93.7 103.5 M93.3 105.0L94.0 121.5 M93.2 198.7L93.6 216.9 M94.5 283.2L94.4 306.0 M93.9 308.0L94.8 309.0 M94.5 383.8L93.8 418.4 M97.5 80.2L98.0 119.7 M98.9 122.4L97.9 122.8 M98.2 197.9L97.8 213.5 M98.7 274.2L98.7 307.7 M98.6 311.5L96.7 311.6 M98.1 385.1L98.8 417.4 M102.1 80.8L102.8 111.2 M102.4 114.7L102.1 124.7 M102.3 196.3L102.4 211.5 M103.0 297.5L101.9 311.9 M102.4 385.5L102.8 417.4 M106.5 79.8L106.2 122.0 M105.5 123.9L106.2 125.7 M106.2 194.0L106.3 210.4 M105.6 241.8L105.8 242.6 M105.9 289.3L106.8 311.6 M105.0 383.3L104.9 419.4 M109.6 74.1L109.9 128.1 M110.3 194.3L110.3 209.2 M109.9 296.8L109.3 313.3 M110.9 383.2L109.3 419.9 M114.7 73.8L113.6 129.8 M114.5 195.4L114.5 207.6 M113.7 236.3L114.2 250.5 M114.2 287.5L113.7 313.3 M114.4 385.5L113.9 417.6 M118.2 2.8L118.9 8.7 M117.6 65.1L118.1 123.3 M118.0 125.9L118.6 130.4 M118.5 194.9L118.8 207.7 M118.1 298.5L117.9 313.4 M117.4 385.1L118.2 410.3 M117.9 413.4L117.5 418.2 M121.9 0.4L122.1 18.6 M122.4 60.5L122.2 110.2 M122.4 112.5L122.0 132.9 M120.7 194.0L121.4 207.9 M122.3 236.1L122.3 250.1 M121.3 287.0L121.8 311.1 M122.2 385.3L122.8 417.9 M125.7 2.6L126.2 26.5 M127.1 29.8L127.0 31.5 M126.2 46.5L125.8 75.4 M126.4 77.6L125.5 107.5 M126.0 110.8L125.2 132.0 M125.4 192.9L126.4 207.8 M126.9 297.5L125.6 313.0 M125.6 383.4L126.8 411.2 M126.4 414.0L125.9 417.4 M129.8 2.4L129.4 29.1 M130.4 31.6L129.9 67.3 M130.6 70.2L130.6 115.3 M130.3 117.8L129.8 132.5 M130.8 194.4L129.4 209.6 M129.6 296.7L130.3 311.9 M130.5 385.8L130.0 413.2 M129.2 414.8L130.9 418.9 M133.9 1.9L133.2 34.2 M133.8 36.8L134.2 66.5 M134.0 69.0L133.6 105.1 M134.3 107.8L132.9 133.5 M134.5 195.8L133.9 208.4 M133.6 298.2L134.9 311.3 M134.6 385.2L133.1 417.6 M137.2 1.0L138.1 54.0 M138.0 56.1L137.1 81.8 M138.0 84.2L138.5 135.2 M138.2 194.2L138.7 210.6 M138.4 297.2L138.6 310.7 M137.7 384.6L138.1 417.7 M141.3 0.6L141.7 37.8 M142.8 41.7L142.0 82.1 M141.8 85.4L141.0 119.3 M142.0 121.3L142.6 132.5 M142.0 196.7L141.5 211.6 M141.9 295.2L141.8 310.2 M141.7 385.5L142.6 419.4 M145.4 0.3L147.2 39.7 M146.3 43.3L147.0 82.3 M146.0 86.1L146.1 107.2 M145.3 111.0L146.6 131.1 M146.0 198.7L145.3 216.3 M146.4 291.6L146.7 310.9 M145.9 383.0L146.3 408.6 M146.7 411.6L145.6 417.4 M150.0 0.7L149.9 33.2 M150.0 37.1L149.4 79.3 M150.6 82.4L150.6 115.4 M150.6 118.9L149.6 127.4 M149.2 199.8L150.3 219.9 M149.6 290.1L149.1 311.4 M150.0 385.7L149.8 418.8 M153.3 1.7L152.9 56.7 M153.4 58.3L154.3 102.1 M153.7 103.8L154.8 123.8 M153.8 200.4L153.4 222.0 M153.0 285.6L155.2 310.2 M154.4 383.9L153.9 419.7 M158.1 1.7L158.4 26.2 M157.6 28.3L157.1 73.4 M158.2 75.6L158.0 117.2 M157.4 202.1L157.9 224.0 M157.8 284.0L158.0 312.1 M159.2 383.1L158.3 417.6 M162.1 2.9L160.7 49.5 M161.1 53.5L161.9 88.1 M162.1 90.8L162.1 111.0 M161.7 202.8L160.0 222.1 M162.0 248.2L161.8 281.6 M160.9 285.5L162.5 315.1 M162.6 383.1L161.8 419.7 M166.0 0.9L165.9 37.6 M165.7 39.2L166.8 78.2 M165.3 79.7L166.0 100.9 M166.3 102.6L166.4 112.2 M166.2 202.0L166.2 220.6 M166.3 237.7L166.7 260.0 M166.9 262.0L166.5 306.7 M165.8 309.7L166.3 316.6 M165.9 384.9L165.9 418.5 M170.0 0.0L169.9 30.6 M170.7 33.4L170.7 85.3 M170.7 88.9L170.1 118.5 M170.5 201.7L169.5 220.0 M170.2 234.0L169.3 256.3 M170.4 258.1L170.0 280.7 M168.8 283.5L169.8 318.0 M169.1 383.4L169.9 417.9 M174.0 1.2L173.4 31.4 M174.7 35.4L174.8 90.4 M174.7 92.9L174.0 121.6 M173.7 202.6L173.0 220.3 M173.8 228.0L174.1 284.9 M174.1 288.1L175.2 312.5 M174.2 316.3L173.4 321.9 M173.8 385.0L174.1 419.1 M178.3 1.0L178.3 58.2 M178.6 60.0L176.9 109.7 M178.1 112.7L177.7 128.1 M177.4 200.8L178.1 220.2 M177.6 225.2L178.2 262.0 M178.4 264.7L176.8 323.8 M178.0 384.0L177.9 418.1 M181.5 0.5L182.9 37.5 M181.6 39.6L182.0 63.8 M182.3 66.2L181.8 108.3 M182.4 110.4L182.2 134.8 M182.1 199.1L182.5 221.0 M181.2 236.6L182.0 274.8 M181.6 277.4L182.9 308.9 M181.7 312.3L181.8 324.0 M181.5 385.8L182.7 418.5 M186.4 4.7L186.0 36.0 M185.9 38.4L186.5 97.8 M186.6 101.7L186.0 122.4 M186.1 125.2L185.5 137.8 M186.0 199.6L185.7 229.9 M186.3 232.7L185.4 272.8 M186.1 276.5L185.3 301.7 M185.1 305.2L185.8 326.7 M186.5 343.5L186.0 351.0 M185.5 384.6L186.3 417.8 M190.2 14.6L190.8 25.8 M191.1 39.1L190.1 61.4 M190.5 64.9L189.7 109.4 M189.5 112.3L190.7 139.4 M189.5 197.2L191.2 214.1 M189.8 247.6L189.9 292.2 M189.9 295.4L189.9 326.8 M189.5 341.6L189.8 354.9 M189.2 384.8L191.1 411.3 M189.6 414.8L190.4 417.8 M194.2 50.9L193.5 110.4 M194.3 112.2L193.2 138.8 M194.2 196.7L193.9 239.5 M193.3 243.3L193.6 297.3 M195.1 299.3L194.1 329.3 M194.5 339.7L193.5 355.2 M193.5 384.1L193.7 418.8 M198.0 55.7L199.0 106.2 M198.2 109.1L198.0 139.5 M198.9 193.3L197.4 213.8 M198.0 269.9L198.1 320.5 M198.9 322.8L198.4 328.5 M198.3 335.5L198.5 357.3 M197.6 383.8L198.6 409.9 M197.8 412.8L197.8 418.4 M202.0 61.9L201.1 119.2 M202.2 121.1L201.7 139.1 M201.9 194.0L202.0 222.7 M202.8 226.4L201.2 266.5 M201.9 268.1L201.9 307.4 M202.4 309.1L201.3 329.8 M201.2 336.7L200.3 359.8 M201.8 383.6L202.2 417.4 M207.0 66.1L205.8 119.3 M205.3 122.3L203.9 139.7 M205.3 191.2L206.7 210.3 M206.4 272.1L206.1 320.3 M206.2 323.7L206.4 357.7 M206.3 383.8L205.6 417.8 M210.2 69.9L210.4 106.9 M210.5 110.5L210.9 138.6 M210.3 189.6L209.9 225.8 M209.5 229.0L210.7 265.8 M210.3 268.2L209.9 324.4 M210.8 327.4L209.5 358.3 M210.4 385.0L208.8 417.4 M215.7 74.3L213.8 126.9 M213.5 130.0L213.7 138.6 M214.5 185.7L214.7 204.7 M214.1 267.8L214.1 291.2 M213.9 294.4L214.8 339.8 M214.1 343.1L214.5 359.0 M215.4 384.3L214.7 417.9 M218.2 76.7L219.1 101.0 M217.9 103.4L217.9 127.5 M218.2 130.9L217.3 137.9 M218.0 184.1L218.6 203.3 M218.0 218.6L216.3 274.9 M218.0 276.5L218.6 307.6 M217.0 310.9L218.4 339.9 M218.7 342.7L219.4 357.1 M217.8 385.4L217.6 417.1 M222.2 81.6L222.0 109.9 M222.5 113.0L221.8 134.7 M221.8 181.0L222.3 201.9 M221.9 248.0L222.0 291.6 M221.8 294.3L222.8 351.1 M222.5 354.7L221.3 357.8 M221.8 384.9L222.4 418.0 M225.7 82.2L225.9 118.4 M226.0 120.4L226.0 134.8 M225.7 176.1L225.5 198.6 M226.6 226.8L225.5 271.6 M226.0 275.6L226.4 328.5 M226.6 330.5L226.4 353.5 M225.8 385.7L226.3 418.3 M229.8 84.7L230.6 110.2 M229.8 112.8L229.3 133.8 M230.4 171.3L230.3 196.0 M230.8 252.9L229.0 286.4 M230.3 289.6L229.2 346.6 M230.3 383.4L230.1 418.1 M234.0 86.4L233.8 132.4 M233.7 167.9L233.8 195.8 M233.9 233.3L233.6 284.8 M233.0 287.8L233.1 338.4 M232.9 341.8L233.8 347.7 M233.6 383.2L233.8 418.8 M237.3 86.0L237.0 113.8 M238.0 115.5L238.1 131.1 M239.1 163.6L237.7 192.2 M238.0 277.6L237.8 324.6 M238.1 327.2L238.2 347.9 M238.7 384.9L238.5 409.1 M237.8 410.9L237.7 419.5 M243.0 85.2L242.0 120.1 M241.8 123.8L242.3 129.5 M242.0 159.0L242.6 187.0 M241.5 190.8L242.8 201.7 M241.7 236.8L241.8 246.3 M241.8 268.4L243.1 292.6 M241.2 294.4L242.4 321.7 M242.5 325.6L241.6 345.9 M243.0 384.7L242.1 416.6 M246.5 85.0L246.7 113.5 M246.1 117.3L246.4 126.6 M246.5 156.6L246.0 182.8 M247.2 286.3L245.7 319.1 M245.7 320.9L246.8 347.6 M245.3 383.5L246.3 418.5 M249.6 85.2L249.5 123.9 M250.0 152.5L249.9 197.8 M250.1 200.9L249.7 208.8 M250.8 275.3L250.1 297.9 M249.4 300.6L249.6 335.5 M250.0 337.5L249.3 348.9 M250.5 383.8L250.5 405.7 M249.8 409.1L249.8 418.6 M253.9 83.8L254.4 120.3 M254.3 150.2L253.8 169.2 M254.4 290.2L254.6 319.1 M254.7 321.3L254.0 348.3 M253.8 350.2L254.5 351.6 M253.7 383.5L255.0 418.7 M257.4 72.0L257.4 104.5 M258.1 106.3L257.8 118.7 M258.6 147.9L258.9 188.4 M257.3 190.8L258.1 206.1 M257.7 238.1L258.7 246.1 M258.7 280.7L258.6 322.4 M257.9 326.2L258.1 350.8 M258.0 383.7L257.5 417.2 M261.0 64.9L262.5 101.5 M262.3 103.6L261.4 117.5 M261.7 144.2L262.1 161.4 M262.5 291.6L261.2 318.4 M263.0 320.6L262.3 354.9 M262.2 385.6L263.3 417.0 M266.1 62.3L266.5 102.0 M265.3 105.7L266.2 113.4 M266.1 140.9L266.4 158.3 M266.0 164.7L265.9 194.3 M265.7 242.9L266.8 242.9 M265.2 276.2L266.7 305.3 M265.9 309.1L267.2 353.0 M265.4 384.5L267.4 418.6 M271.0 61.1L270.0 105.0 M270.7 107.9L269.8 110.0 M269.2 137.9L268.6 156.2 M269.9 291.8L269.2 331.6 M270.8 335.3L270.0 358.3 M270.6 383.5L270.2 419.5 M273.6 60.4L273.4 105.8 M274.1 135.9L273.6 153.8 M273.2 177.1L274.3 179.5 M274.0 271.6L273.9 317.6 M273.9 319.3L274.2 359.3 M274.0 385.9L274.3 418.6 M277.2 62.0L279.1 104.8 M277.9 133.2L277.6 151.5 M276.8 292.6L279.5 294.9 M278.1 299.5L278.7 344.6 M277.7 348.3L278.5 357.9 M278.0 384.5L278.1 419.2 M282.0 61.7L282.8 82.3 M281.5 85.8L281.4 99.0 M281.8 132.2L282.8 150.6 M282.1 260.0L283.2 309.2 M282.3 312.1L282.5 349.5 M282.0 351.4L282.0 357.2 M281.3 384.0L281.6 417.3 M286.1 64.0L286.2 95.5 M286.2 132.7L286.9 148.0 M285.8 279.8L286.0 313.4 M286.4 316.2L286.0 357.9 M285.7 383.8L285.8 409.3 M286.2 411.5L285.6 419.7 M289.9 66.0L290.0 94.3 M290.2 130.7L290.7 145.4 M290.4 220.9L290.2 269.6 M289.7 273.1L289.4 316.9 M290.2 319.1L290.1 358.6 M290.5 384.3L289.5 417.6 M293.4 71.6L293.3 92.0 M293.8 128.3L294.2 144.9 M293.7 274.3L294.8 302.5 M293.8 305.0L294.4 358.7 M293.6 385.2L293.8 412.3 M294.7 415.5L294.5 417.4 M298.1 74.9L297.9 89.8 M298.1 127.5L297.1 143.4 M297.5 216.3L297.3 270.8 M298.3 273.9L297.5 321.6 M298.0 325.8L298.2 347.5 M298.8 349.3L298.2 359.6 M298.1 365.8L297.5 377.2 M297.6 385.1L298.1 417.8 M302.1 76.0L302.0 86.1 M302.7 125.1L302.0 143.1 M301.4 280.5L302.8 323.4 M302.3 329.8L302.0 386.2 M300.7 387.7L301.9 419.5 M306.6 77.9L306.0 86.4 M305.8 124.0L305.7 144.0 M305.6 224.1L305.4 258.6 M306.6 260.8L306.2 311.9 M306.0 314.9L305.1 324.8 M305.9 333.1L307.2 375.9 M304.5 378.2L306.2 419.3 M310.5 0.1L309.4 2.8 M309.2 77.0L309.4 89.8 M309.7 124.2L310.3 141.1 M309.5 308.7L310.3 323.3 M309.8 336.6L310.5 394.1 M309.1 397.5L310.3 418.3 M313.8 0.3L314.8 5.0 M314.0 74.4L314.1 91.6 M315.0 120.0L313.9 138.9 M314.4 227.6L313.9 270.7 M314.4 272.7L314.5 294.2 M313.9 296.5L314.7 324.2 M314.3 338.6L314.6 398.5 M314.2 400.7L313.6 418.0 M317.8 0.3L318.3 7.6 M317.8 71.6L317.4 93.9 M318.6 120.2L317.7 137.5 M318.1 309.6L318.1 326.2 M318.2 340.6L317.7 370.2 M317.6 373.4L317.1 418.2 M322.4 0.7L322.6 8.4 M321.7 71.7L323.2 95.5 M321.5 119.1L322.2 136.6 M322.5 227.4L321.5 248.5 M321.6 250.9L322.2 277.3 M322.1 279.4L323.1 326.1 M321.5 343.3L322.0 376.8 M321.7 379.7L323.1 405.6 M322.2 408.2L322.2 417.2 M326.4 1.5L326.2 9.7 M325.5 68.1L325.9 94.0 M325.5 119.9L325.2 133.2 M326.1 311.3L324.8 328.1 M325.9 344.7L326.5 387.8 M325.4 390.7L326.1 417.6 M330.2 0.6L329.4 9.9 M329.7 66.2L328.5 97.7 M331.5 118.7L330.2 131.5 M330.4 228.0L330.6 242.2 M329.3 262.3L329.8 291.0 M330.1 293.5L330.6 327.4 M329.7 347.6L329.2 358.7 M330.4 364.0L329.6 380.0 M330.2 385.0L330.4 419.9 M334.8 2.2L333.4 7.8 M334.1 67.2L334.0 96.3 M333.5 115.4L334.0 130.6 M333.9 313.1L333.4 330.3 M334.0 348.1L334.1 357.8 M334.0 383.6L333.7 410.5 M333.8 413.2L333.5 418.3 M337.7 2.2L337.5 5.3 M338.3 67.4L336.9 97.1 M337.9 115.1L337.1 129.1 M338.9 270.5L337.8 303.1 M338.2 306.8L338.7 331.0 M337.8 349.7L337.5 357.5 M339.0 385.1L337.2 413.9 M338.8 416.8L338.0 419.8 M342.8 65.1L342.3 89.9 M342.3 91.9L342.9 99.2 M341.5 113.2L343.9 130.4 M342.0 316.1L342.1 329.7 M341.5 350.1L342.3 357.3 M342.0 385.6L342.6 419.4 M345.8 66.9L345.7 99.1 M345.5 114.2L346.7 129.3 M346.9 272.9L345.7 298.5 M345.7 301.9L345.3 326.1 M346.3 327.9L345.9 331.7 M345.2 352.8L346.0 359.9 M346.3 364.9L344.8 385.7 M346.3 389.2L345.9 412.0 M345.7 414.1L346.5 417.5 M350.2 66.1L350.2 99.9 M349.0 115.1L350.2 128.2 M349.9 298.6L350.2 329.5 M350.1 354.4L350.6 374.6 M349.8 378.0L349.7 419.6 M354.4 65.8L354.9 88.1 M354.2 91.7L353.2 100.6 M353.7 114.1L355.0 129.6 M354.3 229.8L354.1 236.3 M352.6 277.6L353.1 322.3 M354.2 324.6L352.9 331.9 M354.6 355.6L354.7 394.5 M353.7 396.2L354.5 419.8 M358.5 66.4L358.0 98.2 M357.4 112.8L357.4 127.8 M357.7 291.0L357.4 318.2 M357.5 319.9L357.6 331.1 M358.1 357.1L359.2 408.5 M357.9 410.6L358.0 417.2 M361.7 64.4L362.4 100.2 M362.4 112.0L361.2 128.8 M361.9 220.3L361.9 249.0 M361.6 283.6L361.0 306.6 M361.9 308.4L362.9 332.4 M361.6 356.3L361.9 409.8 M361.5 411.6L362.8 419.3 M365.9 64.8L367.1 97.2 M365.7 112.1L365.7 128.4 M365.4 296.8L366.3 331.5 M366.4 359.4L365.5 388.9 M367.1 392.1L366.4 418.9 M369.8 61.7L369.6 89.8 M369.8 92.2L370.2 98.8 M370.8 113.7L370.2 131.0 M369.3 215.4L369.9 244.5 M370.2 247.2L369.6 257.8 M370.4 290.3L369.8 331.3 M370.0 361.2L369.6 408.1 M369.2 411.2L369.9 419.7 M374.3 60.5L374.5 97.0 M373.9 114.8L373.4 129.7 M373.8 225.0L374.2 242.5 M373.6 307.4L374.5 330.6 M373.7 363.3L374.1 380.2 M374.3 383.5L373.8 418.7 M378.5 60.5L377.3 82.0 M378.4 84.8L378.1 95.8 M378.0 114.8L378.6 132.5 M376.9 216.2L378.0 261.6 M378.5 301.2L377.2 330.9 M378.5 385.8L377.6 418.4 M383.0 58.5L381.3 93.2 M381.8 113.9L383.2 131.1 M382.3 223.5L380.6 248.9 M381.3 312.1L383.7 328.8 M381.5 384.9L381.5 418.7 M386.2 56.9L386.9 91.9 M385.7 112.7L386.9 130.4 M386.2 213.6L386.3 236.8 M386.2 240.1L386.8 260.2 M386.1 271.8L385.3 278.6 M386.2 312.7L386.0 328.7 M386.7 370.1L384.3 380.3 M386.8 384.1L385.5 415.8 M386.7 418.2L385.6 418.8 M389.4 53.2L389.9 91.4 M389.6 110.8L390.0 129.3 M389.8 221.1L389.7 242.7 M389.6 244.9L389.8 247.6 M390.7 310.2L390.8 327.6 M389.1 364.5L389.8 412.8 M389.7 415.4L390.7 417.8 M393.7 52.6L394.0 87.3 M394.2 110.3L393.9 128.0 M394.2 212.3L393.4 240.9 M394.5 242.5L394.6 257.7 M393.9 271.2L393.2 328.4 M394.4 354.1L394.9 357.5 M394.0 364.6L393.4 390.4 M395.0 393.1L394.2 419.1 M397.8 50.3L398.0 77.2 M398.6 81.0L396.8 87.6 M397.6 111.0L398.5 126.8 M397.5 229.4L398.6 237.0 M397.8 309.4L398.8 327.4 M397.2 348.5L396.9 359.3 M397.9 365.6L399.0 403.0 M398.6 406.8L397.7 419.6 M401.5 48.4L401.6 84.5 M402.1 110.1L401.9 125.9 M401.3 219.2L401.4 246.7 M401.7 273.2L402.2 313.1 M402.2 316.6L402.5 325.6 M402.1 346.0L402.0 357.5 M401.8 365.0L402.1 398.1 M402.4 400.4L402.7 419.8 M405.9 46.4L405.8 68.9 M406.7 72.0L406.4 82.3 M406.4 108.8L405.4 124.4 M406.1 287.9L406.6 295.7 M406.4 303.7L406.7 327.1 M405.8 341.7L405.7 358.6 M406.5 367.5L405.7 419.1 M410.2 45.7L410.4 68.3 M410.2 70.1L409.4 81.6 M409.7 109.0L410.5 124.6 M409.4 275.6L409.3 298.2 M410.5 301.5L411.6 325.6 M409.1 340.5L410.9 357.3 M411.2 362.1L411.0 417.4 M413.2 42.6L413.3 75.9 M414.2 77.9L413.9 79.2 M413.9 108.6L414.5 124.7 M414.1 288.3L413.8 319.7 M414.2 321.2L414.3 326.4 M413.2 339.0L414.7 361.3 M413.6 365.2L414.4 418.5 M418.7 41.6L417.9 62.8 M417.1 66.7L418.3 80.5 M417.8 110.3L418.3 124.0 M418.4 276.3L418.1 297.4 M418.0 299.8L418.4 326.1 M418.6 338.5L417.3 374.1 M418.2 377.3L418.1 417.7 M421.9 40.4L421.3 74.3 M422.1 108.2L421.7 122.3 M421.6 309.4L422.4 325.0 M422.0 339.0L421.5 372.0 M421.9 375.2L422.4 407.3 M421.9 409.2L421.9 420.0 M425.3 37.9L425.7 75.3 M425.5 109.4L426.1 123.9 M426.5 221.0L425.1 257.9 M426.1 261.5L426.1 262.8 M426.2 286.3L426.6 324.1 M426.2 337.0L425.9 359.9 M425.3 364.1L426.4 397.0 M426.5 399.2L426.2 419.6 M430.2 39.0L429.5 74.3 M430.5 110.2L429.8 125.4 M429.3 309.5L429.3 326.4 M430.1 334.7L430.4 358.4 M429.9 368.7L429.0 380.1 M430.1 383.2L430.3 417.9 M433.9 38.9L434.2 69.8 M435.1 73.0L433.2 73.4 M433.6 108.1L434.0 126.3 M434.6 219.3L432.5 253.8 M434.1 257.7L433.9 260.9 M433.7 299.5L434.6 325.9 M434.9 335.9L433.7 359.8 M434.0 383.7L433.8 419.4 M437.9 38.6L437.5 74.0 M438.5 110.5L437.3 126.7 M437.1 308.1L437.0 325.4 M438.5 332.0L438.8 359.1 M437.1 383.2L437.1 416.7 M442.6 37.1L441.7 71.6 M442.3 110.9L442.1 127.2 M441.9 227.4L442.5 229.9 M441.3 308.5L441.5 325.4 M441.9 332.8L442.9 358.1 M441.7 383.0L441.8 419.9 M446.6 38.0L445.7 71.6 M446.1 110.6L445.3 126.1 M445.1 307.9L446.4 323.1 M447.0 331.0L445.0 359.9 M446.2 383.6L446.2 419.5 M450.4 39.6L450.6 68.0 M450.1 110.0L450.0 130.5 M449.2 291.7L450.5 315.2 M450.8 316.8L450.0 323.5 M449.5 332.4L449.6 358.6 M450.4 384.3L450.7 417.1 M453.4 38.2L454.1 67.3 M454.4 111.0L453.8 129.6 M454.2 304.8L453.6 321.1 M454.1 332.3L454.8 359.6 M453.9 384.7L454.9 418.9 M458.0 38.1L457.1 63.8 M458.4 111.9L458.2 131.2 M457.3 279.9L458.0 299.9 M457.3 303.3L458.8 323.4 M457.6 336.5L457.9 357.1 M458.1 383.0L458.3 417.9 M462.8 34.8L461.8 63.4 M462.1 113.5L462.1 131.8 M462.1 304.5L461.4 321.7 M462.4 335.3L463.2 359.6 M462.8 385.2L462.5 417.0 M465.9 33.8L465.7 60.7 M466.9 112.9L465.7 131.0 M466.3 265.7L464.8 316.7 M466.2 320.6L466.7 322.5 M465.3 330.2L466.3 358.0 M466.1 385.4L465.7 417.5 M469.4 29.0L469.9 57.0 M470.0 112.1L469.9 129.3 M469.9 306.3L469.6 358.6 M470.2 384.8L468.7 419.1 M474.1 25.5L474.4 58.1 M474.0 113.5L473.3 130.8 M473.2 259.4L474.1 284.1 M474.1 303.2L473.9 359.8 M475.0 384.9L473.4 406.9 M474.0 410.3L473.5 417.2 M477.7 19.6L478.5 56.9 M478.1 113.3L477.1 131.0 M478.3 306.5L478.2 350.2 M478.0 354.1L478.4 357.3 M478.4 384.5L479.0 417.7 M482.9 13.5L482.5 51.1 M482.1 114.5L481.4 130.3 M482.2 264.2L482.4 276.9 M481.0 305.7L482.2 357.7 M481.6 385.9L481.7 419.0 M486.0 8.6L485.4 33.2 M485.9 36.8L485.6 48.7 M486.3 113.5L485.7 128.1 M485.5 306.9L486.6 358.2 M486.7 384.4L485.7 417.5 M489.8 4.4L490.3 43.8 M489.7 114.2L489.9 131.9 M490.7 306.2L489.9 358.9 M489.7 384.2L489.7 418.9 M494.2 3.8L494.9 39.1 M494.2 116.0L493.8 129.1 M493.2 306.6L493.7 355.7 M494.2 358.0L494.1 358.8 M494.0 383.6L493.6 418.4 M498.3 1.1L498.1 35.4 M497.9 115.4L496.8 131.4 M497.9 303.6L498.9 355.1 M498.3 359.1L497.8 359.9 M498.0 385.9L497.3 418.1 M502.5 1.5L501.2 32.0 M502.0 33.9L501.5 36.1 M501.8 115.0L502.4 132.8 M502.2 304.8L502.0 339.0 M501.4 341.6L502.2 357.8 M501.4 383.5L501.5 409.3 M502.0 411.6L502.2 417.1 M506.2 0.4L505.9 36.8 M506.2 118.0L506.7 135.0 M505.9 189.0L505.4 196.8 M505.7 303.6L505.4 325.1 M506.7 328.3L505.7 357.5 M506.0 383.0L505.9 419.3 M510.4 0.0L511.2 34.2 M509.5 117.7L509.7 134.2 M510.5 301.8L510.4 358.4 M511.1 367.8L509.8 379.9 M510.5 383.1L509.2 414.1 M510.0 417.4L508.9 419.1 M514.6 0.4L514.6 21.6 M513.8 23.9L513.6 37.6 M514.3 121.3L514.6 136.7 M513.8 188.1L513.4 194.3 M513.4 301.1L514.7 330.5 M514.2 334.4L514.1 358.0 M514.3 362.3L513.8 395.2 M514.0 398.2L514.4 418.7 M518.0 1.7L517.7 39.3 M517.9 122.2L518.2 138.7 M517.7 299.1L517.6 338.1 M517.2 340.4L518.0 357.5 M517.9 362.1L518.1 418.0 M522.6 0.1L522.1 45.0 M522.1 123.2L523.2 138.7 M521.7 300.5L522.5 338.1 M522.9 340.5L521.8 364.7 M522.0 367.8L521.9 415.5 M522.5 419.0L521.5 419.5 M526.4 1.6L526.2 28.6 M525.7 32.3L526.2 46.9 M525.4 125.0L525.2 141.2 M525.6 304.6L526.4 352.1 M526.3 355.2L525.8 357.2 M526.0 363.2L527.1 415.5 M525.7 417.4L526.1 419.7 M530.0 2.6L529.8 40.0 M529.8 43.1L530.3 50.7 M529.7 126.6L531.2 145.9 M529.6 307.9L529.4 357.8 M529.8 364.7L530.3 393.6 M530.0 395.6L530.5 418.4 M534.3 0.9L534.4 54.5 M533.9 130.0L535.0 147.2 M534.7 310.9L534.5 356.4 M533.8 368.0L534.8 378.4 M533.9 383.4L533.9 419.7 M537.8 1.9L537.4 32.4 M537.5 34.5L538.4 56.7 M538.6 132.0L537.6 151.1 M537.9 237.9L538.3 240.9 M538.5 312.0L538.6 333.2 M537.9 335.5L538.3 356.9 M538.6 384.8L537.3 409.5 M537.9 413.4L537.8 418.5 M541.9 1.9L541.9 31.6 M541.8 34.5L541.8 57.8 M542.3 135.9L542.9 155.2 M541.5 315.5L541.6 358.1 M541.8 383.9L542.3 419.9 M546.2 0.7L546.4 41.3 M546.3 43.0L546.7 54.5 M546.1 136.5L546.2 157.8 M545.8 315.6L545.8 331.0 M546.5 351.6L545.6 357.2 M546.6 383.7L546.6 409.1 M545.6 412.5L545.2 419.2 M550.1 0.2L549.8 49.1 M550.4 50.7L549.7 53.9 M549.8 140.2L550.6 164.2 M550.4 316.1L551.2 331.7 M548.9 385.0L549.7 409.9 M549.7 412.5L550.3 419.4 M553.6 0.1L554.5 51.4 M553.8 145.6L554.7 170.4 M552.6 318.2L554.9 332.5 M554.1 385.5L554.5 419.3 M558.5 1.9L558.2 28.3 M558.3 31.9L558.0 45.9 M557.7 146.3L556.8 171.6 M557.6 173.2L557.9 175.8 M557.2 319.2L558.9 333.5 M559.3 385.2L559.0 417.8 M561.8 0.1L562.3 39.3 M562.2 150.5L563.0 179.6 M562.2 319.6L562.1 333.7 M561.8 383.3L561.0 414.1 M562.6 417.4L562.4 418.0 M566.3 0.1L567.0 31.0 M565.5 155.8L566.5 177.1 M566.7 319.9L565.7 333.6 M565.8 385.3L566.6 417.1 M569.8 1.5L570.7 23.9 M570.6 129.0L570.5 138.5 M569.7 157.7L570.5 179.6 M569.7 321.3L569.5 335.4 M569.6 385.5L569.7 419.9 M574.3 2.1L573.5 20.3 M573.0 124.1L573.6 145.3 M574.8 158.7L574.4 177.9 M574.6 320.9L573.2 334.4 M574.4 384.6L573.7 418.6 M578.9 0.9L578.4 16.1 M577.7 120.7L578.1 150.7 M578.2 162.7L578.8 177.8 M577.5 319.7L577.8 335.9 M578.9 384.9L577.9 419.1 M581.8 1.8L582.2 14.8 M581.7 121.4L581.9 153.9 M581.7 163.4L582.2 180.8 M582.5 318.5L582.4 334.7 M581.7 385.2L581.3 417.4 M586.7 2.3L586.6 11.7 M586.0 120.4L585.8 151.6 M586.4 163.6L586.0 179.2 M585.7 279.9L586.0 294.5 M586.3 318.8L586.1 334.3 M586.8 385.5L586.1 420.0 M588.9 1.9L590.7 9.0 M590.6 120.3L589.6 152.4 M590.5 166.1L589.3 181.1 M591.4 316.7L589.6 331.6 M589.9 385.5L590.3 417.8 M594.3 2.3L594.9 6.6 M594.5 119.3L593.8 145.0 M594.0 147.6L594.4 150.6 M594.1 166.3L593.0 182.2 M594.3 279.3L593.2 297.7 M593.8 317.1L594.1 330.9 M593.5 386.0L593.9 418.4 M598.3 0.0L597.8 4.9 M598.7 118.5L598.3 145.1 M598.5 148.0L597.6 149.2 M597.9 167.0L598.8 184.1 M597.9 313.1L598.2 330.6 M598.3 385.8L598.4 419.8 M602.4 118.7L601.6 143.8 M602.5 168.8L600.8 186.5 M601.9 282.3L601.9 301.9 M601.8 312.0L601.6 328.2 M601.1 383.3L601.0 419.2 M605.5 120.1L606.6 145.1 M605.4 171.9L605.1 188.4 M606.0 311.7L606.3 326.8 M606.3 383.4L606.3 407.2 M605.6 410.4L605.3 419.9 M610.4 117.3L610.1 143.5 M610.4 171.9L610.5 191.0 M609.9 303.4L610.6 327.6 M610.6 384.5L609.5 406.5 M609.8 409.1L610.5 418.7 M613.8 117.5L613.5 142.0 M614.3 173.6L615.0 190.3 M613.7 304.6L613.6 324.8 M613.8 357.4L614.2 358.1 M613.9 384.6L614.9 405.1 M614.3 408.5L613.6 418.3 M618.0 119.9L617.5 136.7 M618.1 173.4L618.9 192.5 M618.1 300.6L617.6 324.2 M616.9 353.4L618.3 357.0 M617.9 384.6L618.3 414.8 M618.3 416.4L618.2 419.2 M622.4 119.0L622.8 133.7 M622.0 174.3L622.1 191.9 M623.0 298.4L621.3 325.3 M621.9 352.2L620.7 357.1 M622.7 384.1L622.3 419.4 M625.5 173.1L626.7 190.4 M625.8 297.1L626.8 327.7 M624.9 349.5L625.9 357.2 M626.4 383.7L626.5 412.0 M626.1 413.8L626.6 418.9 M630.2 176.5L630.3 189.9 M630.5 302.8L629.2 328.7 M629.9 347.7L630.8 359.5 M630.4 383.8L629.0 419.4 M634.2 175.5L633.6 191.7 M634.4 307.1L634.0 335.9 M633.7 345.2L633.2 359.6 M634.0 383.3L634.7 412.4 M633.5 416.1L633.7 419.3 M637.0 177.0L637.5 192.6 M637.4 310.5L638.4 359.0 M637.9 383.1L638.9 417.9 M642.0 177.1L642.6 193.9 M642.4 313.6L641.8 338.7 M642.9 342.0L642.2 357.0 M642.3 383.9L641.8 419.7 M645.4 177.5L646.8 193.9 M645.2 315.6L645.2 353.3 M646.1 356.1L645.3 358.3 M645.7 385.8L646.0 408.9 M646.7 412.4L646.4 418.2 M650.1 180.1L649.6 195.0 M649.4 277.7L648.8 280.6 M650.3 319.5L650.0 351.1 M649.2 353.5L650.9 359.7 M650.0 385.6L649.6 412.0 M649.1 413.7L651.2 419.0 M653.5 182.2L654.2 196.9 M655.1 320.8L653.5 339.3 M652.7 370.7L654.0 379.7 M654.7 385.7L654.6 417.7 M657.6 183.3L659.0 200.9 M658.1 276.2L657.4 283.1 M658.4 319.1L659.0 355.7 M658.6 367.0L658.3 394.0 M656.7 396.3L658.7 418.5 M661.4 186.8L663.2 204.2 M662.3 320.4L662.1 333.3 M661.4 365.7L661.8 388.8 M661.2 392.5L661.4 418.9 M665.9 1.1L667.0 5.3 M665.4 187.4L665.9 209.1 M666.4 320.6L665.6 332.5 M665.7 337.3L666.0 357.1 M666.8 367.4L665.6 389.1 M665.7 393.1L666.4 417.3 M669.3 0.5L670.4 5.1 M669.9 191.1L670.8 212.1 M670.2 320.0L670.1 331.8 M669.5 369.7L670.1 406.3 M670.1 407.9L669.7 417.1 M674.1 1.9L672.9 9.0 M674.6 193.3L674.0 216.0 M674.2 322.0L675.0 333.3 M674.1 337.8L674.4 357.0 M674.3 373.8L673.9 379.1 M674.7 384.0L674.0 406.9 M673.8 410.5L674.6 417.6 M678.6 2.8L678.8 9.1 M676.8 189.1L678.0 217.2 M677.7 321.3L678.2 336.9 M678.3 349.9L677.2 358.6 M678.3 384.7L678.7 419.0 M682.4 2.4L681.7 12.1 M681.8 183.9L682.1 216.4 M682.1 319.0L682.5 357.1 M682.5 385.8L681.3 419.4 M686.4 1.1L685.5 11.2 M686.1 175.5L686.3 197.8 M686.2 199.5L686.5 219.2 M686.3 319.1L686.1 358.8 M686.6 383.3L685.3 404.6 M685.8 407.9L685.9 418.1 M690.4 0.4L690.1 13.0 M689.8 171.3L689.5 195.6 M689.5 199.4L690.3 221.1 M689.9 316.9L690.0 357.5 M690.0 385.6L690.0 407.9 M689.6 410.2L690.8 417.6 M694.0 2.3L694.2 11.7 M694.5 165.8L694.6 218.9 M693.7 222.2L693.5 223.4 M693.2 316.8L694.7 358.9 M693.8 384.4L693.1 419.4 M698.2 0.5L699.0 7.9 M698.2 163.5L698.6 188.0 M698.2 191.8L698.1 225.5 M698.0 313.6L697.7 353.5 M697.8 357.1L697.8 357.6 M697.7 383.9L697.3 404.4 M698.6 406.5L698.2 419.3 M701.5 0.7L701.9 6.9 M701.0 158.6L702.2 202.6 M701.6 204.6L702.4 227.0 M702.6 312.6L702.2 342.6 M701.9 344.5L702.1 358.1 M702.0 385.9L702.1 418.8 M706.8 1.2L705.3 2.9 M706.0 157.9L706.8 211.0 M705.7 212.6L706.0 229.6 M705.8 313.1L706.1 359.9 M706.1 384.1L705.2 417.5 M711.2 157.3L709.9 187.9 M709.2 190.5L708.7 226.1 M710.2 229.0L710.3 235.8 M709.3 313.8L709.3 349.9 M709.9 353.9L709.9 358.4 M710.9 383.3L709.1 411.8 M709.9 415.7L709.8 417.9 M714.4 155.1L713.1 213.6 M714.6 216.9L714.1 242.6 M714.0 310.6L713.8 353.1 M714.0 354.6L714.9 357.1 M714.7 383.8L714.0 417.2 M717.3 153.3L717.6 201.4 M718.9 204.9L717.1 249.1 M718.8 310.0L718.2 346.6 M717.6 349.8L718.2 359.7 M717.6 385.3L719.7 419.8 M722.9 150.8L722.1 186.0 M722.4 189.8L721.7 240.6 M722.3 243.8L721.6 254.5 M722.4 306.5L721.6 359.6 M722.5 384.9L721.4 419.3 M726.2 150.5L726.5 201.1 M726.0 202.8L726.5 227.3 M726.1 230.2L725.5 258.5 M725.4 304.6L725.5 327.5 M726.5 353.7L725.7 359.4 M726.3 385.2L725.4 418.2 M729.2 0.2L729.0 4.6 M730.1 147.8L729.9 196.7 M730.5 198.6L730.0 253.0 M730.3 256.8L729.8 263.5 M730.1 298.5L728.2 320.8 M730.3 322.8L729.6 323.1 M730.7 350.9L730.7 359.8 M730.5 383.6L731.0 419.9 M734.4 0.6L733.7 10.3 M734.0 146.0L734.1 187.4 M733.8 189.5L734.9 229.4 M733.6 231.3L734.2 236.3 M734.4 240.4L733.8 273.3 M734.0 290.7L734.4 322.3 M734.9 358.5L734.2 359.9 M733.8 384.7L734.5 419.1 M737.4 0.8L737.2 15.6 M738.8 146.0L737.4 166.6 M738.2 169.2L738.7 206.8 M738.1 208.4L738.4 236.6 M738.6 246.8L738.3 300.6 M737.4 302.4L737.8 321.3 M738.8 348.4L738.8 358.9 M737.5 385.2L738.0 418.9 M741.7 2.4L741.5 20.5 M740.7 149.9L741.7 172.5 M741.8 174.4L743.1 223.4 M743.1 225.0L742.0 236.9 M742.1 253.7L742.5 292.0 M742.7 293.9L742.0 319.6 M742.5 385.4L741.6 414.6 M742.0 416.3L741.4 418.8 M745.6 0.5L746.5 23.6 M746.6 151.4L746.6 177.2 M745.5 179.8L746.1 233.4 M745.8 262.4L746.4 299.6 M745.8 301.4L745.8 320.5 M745.5 339.2L746.2 351.3 M746.3 357.7L745.7 359.3 M745.4 383.9L745.7 417.0 M749.7 0.7L750.2 26.8 M750.7 155.2L749.1 179.8 M750.2 183.1L749.6 233.3 M750.2 273.0L750.0 315.2 M750.2 357.0L749.7 359.0 M750.2 385.7L750.4 418.7 M754.1 0.1L754.2 28.1 M754.0 156.6L753.1 186.5 M754.3 188.2L753.6 232.8 M754.7 283.6L753.7 307.5 M753.9 310.5L754.1 312.7 M753.1 330.5L754.3 359.6 M753.2 385.9L754.7 411.4 M753.1 415.1L753.6 417.3 M757.6 2.6L757.8 29.7 M757.9 163.4L757.7 214.2 M758.3 215.9L758.7 231.9 M758.0 288.2L757.7 310.8 M757.6 351.6L758.1 359.5 M758.5 384.9L758.4 417.6 M762.1 1.2L761.8 32.5 M762.4 165.6L762.2 205.3 M762.7 207.4L761.4 227.8 M762.2 291.6L761.1 306.5 M761.6 321.2L761.4 347.9 M762.2 353.0L761.7 359.6 M761.6 383.1L762.2 404.6 M762.0 407.5L761.6 419.9 M766.1 1.1L765.9 35.4 M766.4 168.4L766.2 216.7 M766.6 219.0L766.0 225.4 M765.5 290.6L766.3 305.2 M765.3 352.5L765.6 357.1 M766.9 385.6L765.9 412.8 M765.8 415.3L766.5 417.3 M770.6 1.1L769.5 33.4 M769.3 170.5L770.2 214.2 M769.1 290.0L771.3 311.2 M769.2 321.9L770.1 344.8 M769.6 353.4L770.8 359.9 M770.0 383.9L770.9 415.0 M770.2 418.0L770.1 418.9 M773.6 1.3L774.6 35.4 M773.9 172.0L775.5 204.5 M774.1 291.2L773.9 304.0 M774.0 355.0L774.2 358.3 M773.5 385.2L774.2 410.4 M774.7 413.8L774.7 419.1 M777.4 2.1L777.9 37.9 M778.3 170.8L778.0 196.8 M777.7 290.1L778.1 306.6 M777.4 332.7L779.1 339.0 M777.8 352.5L777.8 357.6 M777.6 385.8L777.8 414.6 M777.6 417.2L777.4 419.4 M781.7 0.1L781.8 36.5 M782.7 170.8L781.7 193.3 M781.8 289.7L782.7 308.1 M781.9 352.1L781.2 359.3 M781.8 384.7L781.9 417.3 M785.8 1.3L786.0 34.8 M786.1 36.9L786.0 37.7 M786.5 168.1L787.0 188.2 M786.1 291.5L785.4 308.5 M786.4 348.0L786.0 359.3 M786.5 384.5L786.1 418.7 M789.2 0.5L790.1 26.2 M790.3 28.5L790.3 36.7 M790.4 167.0L790.2 189.1 M790.4 291.1L790.0 311.6 M790.2 348.9L790.4 359.4 M790.2 370.7L789.1 380.3 M790.3 383.8L789.7 417.2 M793.5 0.6L794.8 32.4 M794.4 166.3L793.8 191.7 M794.4 289.4L794.3 312.9 M793.4 345.2L794.3 358.8 M795.1 366.4L794.0 403.8 M794.0 406.6L794.3 418.6 M798.9 2.4L798.1 31.4 M798.5 163.7L797.7 190.6 M798.3 288.3L797.9 308.4 M798.4 354.7L797.5 358.4 M797.7 365.3L798.2 417.8 M801.2 5.1L802.1 28.5 M800.9 163.9L802.8 192.3 M803.0 288.9L800.9 305.1 M801.6 347.4L801.5 357.4 M802.5 364.4L801.5 388.4 M802.3 390.9L802.3 418.8 M806.1 6.7L806.1 28.9 M805.6 163.5L805.5 196.1 M805.5 286.9L806.0 303.5 M805.5 366.3L806.9 404.3 M805.2 408.2L805.2 418.9 M809.3 10.7L809.8 27.1 M809.5 162.2L810.3 199.5 M810.0 287.2L808.5 301.8 M810.1 351.5L810.2 359.8 M809.3 364.0L810.2 404.1 M809.8 407.3L810.0 419.0 M814.4 13.8L814.6 25.8 M814.4 162.3L814.2 201.9 M814.4 286.5L814.8 302.0 M814.6 364.8L814.3 392.4 M814.6 395.4L814.4 417.1 M817.9 16.8L817.6 25.4 M817.0 159.6L817.9 200.2 M818.5 203.8L818.5 204.8 M818.1 285.2L817.6 300.1 M817.7 357.8L818.3 358.0 M818.1 367.9L817.5 389.7 M818.4 391.4L817.7 418.2 M822.6 20.2L822.7 25.6 M821.9 158.9L821.9 207.5 M823.0 209.5L821.8 209.7 M821.4 288.1L822.9 300.9 M821.3 372.0L820.9 379.0 M821.9 385.4L821.7 418.7 M825.7 19.8L826.0 27.8 M825.6 160.5L825.4 211.3 M825.5 286.3L825.9 299.1 M825.6 356.3L826.6 358.1 M826.8 384.8L825.5 417.8 M830.4 21.6L830.3 33.2 M830.0 159.0L829.6 207.8 M830.4 210.2L828.8 211.5 M830.3 289.6L830.1 302.3 M829.9 383.0L829.4 412.0 M830.1 415.8L830.3 418.3 M833.4 20.5L833.1 43.8 M833.7 157.1L833.8 198.1 M833.6 201.6L833.4 212.6 M833.8 288.2L833.9 303.9 M834.4 354.0L834.6 358.9 M833.5 384.7L833.9 419.4 M838.5 19.4L837.8 54.3 M837.7 156.1L837.9 176.3 M838.5 179.7L837.1 211.2 M837.5 290.6L838.2 309.0 M837.4 354.9L837.4 358.8 M837.9 363.2L837.7 380.1 M837.8 385.8L838.4 417.7 M842.3 20.3L842.2 60.9 M841.8 62.8L841.3 64.2 M841.1 157.4L840.8 195.2 M842.6 197.7L841.9 210.6 M842.3 291.2L842.0 310.2 M841.4 351.2L841.1 390.5 M841.9 393.3L841.7 418.4 M846.3 18.1L846.3 68.6 M846.0 70.9L846.2 71.5 M845.6 158.1L845.8 182.8 M845.7 186.8L846.7 208.9 M846.7 293.0L845.6 316.7 M846.7 352.8L845.7 376.9 M845.5 379.4L846.7 417.0 M849.2 19.5L850.9 70.7 M849.5 73.5L849.4 75.6 M849.6 157.8L850.3 206.0 M849.4 293.3L850.2 317.7 M850.9 353.8L851.1 400.5 M849.4 403.5L849.4 418.9 M853.9 17.7L853.7 58.6 M854.3 61.6L854.9 75.5 M854.8 160.1L854.6 202.8 M854.0 298.0L854.0 315.1 M854.2 355.8L853.8 415.2 M858.3 16.2L857.8 45.1 M858.1 49.0L858.0 77.9 M857.4 163.1L858.9 200.8 M858.3 296.4L858.6 314.2 M858.5 357.4L857.9 410.4 M858.5 414.3L857.8 419.3 M862.0 17.9L862.4 76.2 M861.8 79.2L861.7 79.9 M862.9 164.1L862.4 197.4 M862.3 299.0L862.8 313.5 M861.9 358.0L862.9 396.8 M861.9 400.4L861.9 417.8 M866.1 17.3L866.0 51.5 M866.9 53.0L865.4 79.9 M865.5 168.2L866.4 196.6 M864.8 300.2L865.0 313.3 M865.4 357.3L865.5 399.6 M865.6 402.1L866.2 419.6 M869.7 18.3L869.4 74.4 M870.0 78.0L870.0 79.0 M870.6 171.0L870.5 195.7 M870.1 302.7L869.3 315.3 M869.3 356.3L871.1 359.9 M869.8 368.5L870.5 376.1 M869.6 385.6L869.6 417.7 M873.9 20.7L874.5 70.3 M874.0 73.1L873.5 79.9 M873.8 176.0L874.3 192.5 M874.5 305.0L873.9 319.2 M872.5 351.9L874.9 359.3 M874.2 383.6L874.3 419.5 M878.2 24.6L877.5 46.4 M877.9 48.2L877.6 79.3 M877.6 304.3L876.6 322.9 M878.0 349.2L878.5 358.1 M877.5 385.6L877.3 417.2 M882.3 29.6L882.4 79.1 M882.3 308.6L881.7 358.6 M881.5 385.5L881.9 419.3 M885.7 34.8L885.5 64.0 M886.0 66.2L885.7 80.0 M885.6 309.7L886.4 345.3 M885.8 347.2L885.3 359.4 M886.5 385.8L887.1 419.5 M889.4 39.1L889.6 76.0 M890.2 78.0L890.2 83.3 M890.7 311.5L889.9 358.1 M890.3 359.7L890.2 360.0 M889.5 383.6L891.1 418.1 M894.0 45.1L894.3 83.5 M895.4 312.6L893.6 334.4 M893.2 350.8L894.4 357.6 M892.7 383.4L894.7 403.6 M894.1 406.3L894.0 419.4 M898.6 53.0L898.7 86.5 M898.0 311.4L897.6 328.3 M898.0 358.1L898.5 359.9 M898.3 383.2L898.1 418.4 M901.4 56.3L902.6 86.0 M902.3 313.2L902.3 326.0 M901.5 383.5L901.6 404.3 M902.1 406.1L902.8 419.6 M905.8 58.2L906.1 90.7 M906.1 312.3L905.6 324.4 M906.3 385.2L906.5 419.3 M909.4 61.5L909.4 91.4 M910.9 312.7L910.9 324.8 M910.9 384.9L909.4 418.6 M914.4 59.3L913.3 90.6 M914.2 312.5L915.1 323.1 M914.4 383.2L914.1 418.1 M918.4 59.3L917.3 89.8 M918.4 92.2L917.3 96.5 M918.1 197.5L918.7 205.2 M918.2 314.6L918.0 324.4 M917.2 385.5L919.2 417.7 M922.0 60.3L922.6 97.0 M922.7 193.6L921.9 213.0 M923.3 315.4L923.1 327.7 M921.8 384.2L922.9 418.1 M926.3 59.9L925.5 99.4 M925.9 189.8L925.6 217.1 M925.9 317.6L925.4 331.9 M925.2 354.2L926.9 359.5 M925.8 383.1L925.7 414.4 M926.4 416.1L925.7 419.4 M930.0 58.6L930.4 82.5 M929.9 84.7L930.9 103.3 M930.2 187.7L930.2 221.8 M929.4 238.8L929.7 267.0 M930.5 321.4L930.8 357.6 M929.1 384.8L929.4 419.1 M933.3 58.1L933.3 104.6 M934.1 186.3L933.8 226.9 M933.7 229.4L933.0 271.2 M934.6 274.8L934.3 276.7 M934.6 324.0L933.6 358.4 M933.9 385.9L934.1 417.6 M937.6 58.4L938.3 106.3 M938.3 183.1L937.5 209.1 M937.9 212.4L938.2 245.8 M936.9 249.0L937.6 281.7 M937.8 326.9L939.0 352.0 M937.9 355.5L938.0 359.3 M937.9 384.2L938.3 416.9 M940.3 60.3L942.6 81.5 M942.3 83.1L942.3 108.0 M941.7 183.3L942.2 224.0 M941.0 227.7L942.8 253.0 M941.8 256.6L942.2 286.7 M942.5 322.1L942.2 350.5 M942.1 354.4L943.4 356.3 M942.9 385.5L942.7 419.3 M946.6 60.4L946.3 98.5 M946.3 100.2L946.1 112.0 M945.5 181.9L945.7 223.3 M946.1 226.0L947.2 256.9 M945.7 259.7L946.9 288.8 M946.6 317.1L946.2 354.2 M946.4 385.4L945.6 405.5 M946.8 409.2L946.0 417.6 M950.0 60.6L949.8 99.8 M950.0 103.7L950.2 112.6 M950.5 182.5L950.1 230.4 M949.8 263.7L949.4 291.3 M949.5 312.1L950.5 358.2 M949.7 383.2L949.4 417.7 M953.6 62.0L954.6 112.3 M952.6 115.0L953.8 116.9 M954.0 182.8L954.0 228.7 M953.5 239.4L954.4 273.0 M953.8 276.1L954.4 292.3 M954.8 311.8L953.9 357.2 M955.0 384.1L954.9 405.8 M954.2 407.5L953.3 417.9 M958.2 58.3L957.3 79.8 M957.9 83.5L958.4 112.7 M958.3 116.1L957.6 118.4 M958.1 185.3L957.9 211.2 M958.9 214.0L959.2 224.4 M957.7 261.5L958.7 295.0 M957.3 309.9L958.2 359.8 M958.0 385.1L957.7 419.1 M961.5 58.1L961.4 88.1 M961.9 90.3L963.0 120.7 M962.1 186.8L961.4 207.0 M962.2 209.1L962.9 263.3 M961.3 266.7L962.1 293.1 M960.6 309.1L962.6 340.5 M962.2 343.8L962.3 348.6 M961.3 383.3L962.7 418.9 M965.3 57.8L966.1 106.8 M965.6 110.0L966.3 123.8 M965.2 189.1L966.9 217.3 M965.5 220.5L965.4 223.7 M966.8 259.3L967.2 281.9 M967.7 285.4L965.8 297.1 M966.2 309.7L965.4 341.6 M965.5 384.2L965.5 417.4 M969.6 55.4L969.3 107.7 M970.8 110.7L971.1 127.1 M969.8 193.9L969.3 230.8 M970.6 249.7L969.9 297.4 M970.5 312.3L969.6 339.9 M970.5 384.9L970.2 410.4 M969.9 414.3L971.2 418.7 M973.8 52.5L974.3 84.0 M973.6 87.5L974.0 127.5 M974.3 193.5L974.4 222.2 M973.9 261.5L974.5 290.5 M973.7 293.9L973.4 297.7 M974.5 320.2L973.8 338.6 M974.1 385.3L973.9 417.5 M977.8 48.5L978.1 79.8 M977.9 83.2L978.1 125.0 M978.6 127.0L978.3 133.4 M978.3 193.1L979.1 220.0 M978.7 254.1L978.1 274.6 M978.2 276.7L977.1 300.0 M978.0 326.2L978.1 337.0 M978.0 384.7L977.8 417.0 M982.3 45.9L983.4 90.1 M981.9 92.3L981.3 125.8 M982.0 129.2L982.8 134.9 M982.2 193.1L982.4 219.0 M982.1 263.5L981.6 297.1 M982.3 327.3L982.2 337.6 M982.3 368.3L983.1 377.5 M982.1 383.8L982.4 409.2 M981.7 412.9L982.2 419.8 M985.7 40.3L985.8 74.9 M985.0 78.1L986.7 136.2 M986.4 192.5L985.6 213.5 M986.5 255.9L985.0 296.3 M985.8 329.2L986.3 337.0 M986.0 361.5L985.2 409.3 M986.3 412.1L985.9 417.9 M989.9 36.4L990.0 79.4 M990.2 82.6L991.0 136.6 M989.4 188.6L988.9 209.3 M990.1 266.7L989.8 297.7 M989.4 329.4L989.7 339.2 M989.7 359.0L990.5 415.6 M990.0 418.5L989.8 419.1 M993.5 32.3L994.4 54.2 M994.6 56.0L992.8 90.2 M995.0 93.4L993.9 138.6 M993.9 185.7L993.8 205.7 M994.7 255.3L994.8 272.1 M993.3 277.0L993.5 295.2 M994.2 331.3L994.4 345.6 M994.1 357.3L993.1 379.3 M994.5 382.0L993.1 408.4 M993.5 411.7L994.6 417.9 M999.1 28.0L998.5 80.8 M997.2 84.5L998.1 111.0 M997.5 114.9L997.9 135.7 M999.0 182.9L998.3 202.7 M999.2 265.0L997.7 285.1 M997.0 287.1L997.1 297.2 M998.4 334.5L998.0 375.3 M998.1 377.9L997.4 418.9 M1002.5 25.4L1002.3 58.9 M1002.4 60.7L1002.9 111.8 M1001.9 114.3L1002.5 134.4 M1001.4 180.5L1001.5 221.9 M1002.4 254.8L1002.2 294.2 M1002.3 340.5L1002.5 384.7 M1001.8 387.7L1002.6 409.1 M1001.3 412.0L1001.5 418.7 M1006.4 23.1L1006.1 70.2 M1006.1 72.9L1005.7 95.6 M1006.5 97.7L1006.7 123.7 M1006.6 127.0L1004.6 130.6 M1005.7 179.8L1006.4 199.5 M1006.3 266.8L1006.9 297.3 M1006.0 359.3L1005.7 396.5 M1005.9 398.6L1006.0 419.8 M1010.1 21.4L1010.1 70.4 M1009.5 73.0L1010.5 117.1 M1010.0 119.6L1010.3 126.6 M1009.4 174.9L1009.5 201.9 M1009.8 205.8L1010.6 233.1 M1009.3 235.6L1010.3 242.4 M1010.1 256.1L1011.3 295.0 M1009.9 363.5L1010.0 413.3 M1011.0 416.8L1010.0 418.2 M1014.3 20.9L1014.0 65.7 M1013.8 68.8L1014.3 92.7 M1013.4 94.8L1013.9 121.1 M1014.5 171.9L1014.8 196.5 M1014.4 205.0L1013.6 211.6 M1013.9 267.5L1014.7 295.5 M1013.8 370.1L1013.9 373.4 M1014.3 384.8L1014.2 408.7 M1013.9 412.2L1014.4 417.1 M1018.4 17.6L1017.4 65.2 M1017.5 67.9L1018.3 116.7 M1018.1 169.7L1018.7 201.7 M1017.9 203.2L1018.6 228.1 M1018.1 231.3L1016.6 246.4 M1017.9 257.7L1018.3 294.5 M1016.9 385.5L1018.1 419.8 M1022.4 14.9L1021.0 44.8 M1022.2 46.8L1022.5 67.3 M1021.9 70.4L1022.0 101.9 M1021.3 105.2L1022.1 111.3 M1021.3 166.0L1023.1 185.7 M1021.5 201.1L1020.7 214.4 M1022.0 269.8L1021.5 296.4 M1022.7 383.3L1022.5 404.7 M1022.0 408.6L1022.2 419.1 M1026.7 9.4L1025.7 30.5 M1026.9 32.9L1026.3 66.0 M1026.7 93.3L1026.9 107.4 M1025.9 162.3L1025.9 182.9 M1025.9 191.4L1025.2 218.7 M1026.1 220.6L1026.6 249.4 M1026.0 252.6L1026.0 294.5 M1026.2 384.7L1027.3 413.8 M1025.9 416.8L1025.4 417.8 M1030.1 2.4L1029.8 37.3 M1030.9 41.1L1028.5 56.4 M1030.2 160.0L1030.0 179.1 M1029.6 205.4L1028.5 214.1 M1030.7 228.9L1030.2 245.8 M1029.8 276.0L1029.4 294.2 M1030.0 383.7L1031.4 419.9 M1033.7 2.6L1033.2 53.2 M1034.1 158.0L1034.7 176.1 M1034.0 192.9L1033.7 241.4 M1034.8 244.9L1034.6 293.6 M1033.6 383.5L1035.1 418.7 M1037.8 2.8L1037.3 49.8 M1037.8 154.5L1038.7 175.8 M1037.8 203.1L1038.9 251.0 M1037.7 275.9L1037.2 291.8 M1038.9 385.5L1038.3 417.8 M1041.8 1.9L1042.9 27.4 M1042.3 29.7L1041.8 45.2 M1042.5 150.7L1041.9 173.8 M1043.0 192.1L1041.8 221.3 M1042.3 225.1L1042.1 283.6 M1042.8 285.5L1042.7 291.1 M1042.0 385.9L1042.3 417.1 M1046.4 2.5L1046.0 28.6 M1047.0 30.3L1046.7 45.0 M1047.1 148.5L1046.5 172.8 M1045.9 205.2L1046.3 241.2 M1046.1 244.7L1045.3 251.1 M1046.1 270.8L1046.1 288.7 M1046.1 383.6L1045.2 406.5 M1046.4 408.3L1046.3 418.5 M1050.1 2.2L1050.2 42.5 M1049.3 146.4L1049.4 169.2 M1049.0 198.2L1049.6 245.2 M1049.6 248.9L1050.7 261.9 M1049.9 267.3L1050.1 288.2 M1050.9 385.7L1050.1 418.8 M1054.4 0.8L1054.3 35.2 M1053.6 141.0L1053.1 164.4 M1053.9 266.2L1053.2 285.1 M1054.2 384.6L1053.7 418.0 M1057.9 0.9L1057.6 36.2 M1058.9 139.6L1057.8 161.5 M1058.0 210.6L1057.8 270.3 M1058.7 272.4L1058.6 284.8 M1058.5 384.0L1057.4 417.7 M1062.4 2.3L1062.0 32.7 M1061.4 135.2L1062.3 155.3 M1062.2 262.2L1062.9 282.2 M1061.9 385.8L1062.8 417.0 M1066.3 0.0L1065.5 26.6 M1065.8 134.6L1066.0 151.5 M1066.8 223.1L1066.1 245.5 M1065.2 247.0L1066.1 268.0 M1065.9 271.1L1067.2 281.6 M1066.1 384.0L1065.7 419.0 M1069.9 0.2L1068.8 14.5 M1070.8 132.9L1069.7 148.6 M1071.0 263.1L1070.1 280.1 M1069.4 383.2L1071.5 419.2 M1073.9 2.9L1074.0 4.0 M1075.2 129.9L1073.3 145.3 M1074.8 243.2L1074.7 278.4 M1073.1 384.6L1073.3 415.5 M1078.8 127.6L1078.7 144.6 M1077.8 258.1L1078.3 276.2 M1078.6 383.7L1078.0 412.2 M1077.8 414.6L1078.5 417.5 M1082.4 127.1L1082.2 141.4 M1082.4 241.1L1081.0 276.6 M1082.7 384.6L1082.4 417.9 M1086.6 127.0L1087.3 140.3 M1085.0 255.7L1085.9 274.9 M1085.6 385.8L1085.4 410.3 M1086.4 413.1L1086.4 419.5 M1089.9 124.7L1090.4 141.6 M1089.6 242.7L1089.4 265.7 M1090.6 268.2L1089.6 274.6 M1089.6 383.1L1089.5 407.8 M1090.3 409.7L1090.4 419.3 M1094.0 124.7L1094.5 138.1 M1094.9 251.8L1093.4 275.8 M1093.3 383.9L1092.7 410.6 M1094.6 413.2L1095.1 419.1 M1098.2 123.9L1098.8 139.3 M1098.5 242.3L1098.0 275.1 M1097.0 384.7L1099.4 419.1 M1102.0 123.9L1102.1 137.7 M1102.1 251.1L1102.0 273.9 M1101.8 383.7L1101.7 419.7 M1104.5 123.5L1106.5 137.8 M1105.4 241.1L1106.5 270.6 M1106.5 384.1L1105.2 417.1 M1110.2 1.4L1109.1 5.6 M1109.5 123.6L1109.2 138.7 M1109.6 249.7L1110.7 274.7 M1110.7 383.4L1109.8 409.0 M1109.6 410.9L1109.4 417.4 M1113.4 1.4L1113.9 8.4 M1114.0 123.8L1114.1 138.2 M1113.9 241.6L1113.3 274.5 M1115.8 384.6L1113.4 410.3 M1114.0 413.9L1114.3 418.8 M1117.5 0.1L1119.4 10.6 M1118.4 125.4L1118.6 139.1 M1118.5 247.4L1117.8 275.2 M1117.9 384.4L1116.7 417.2 M1121.5 1.1L1121.4 13.1 M1122.0 128.0L1121.9 142.5 M1120.9 238.9L1121.8 253.2 M1122.6 258.2L1122.3 277.5 M1121.8 384.4L1122.1 416.6 M1126.1 2.4L1126.1 11.7 M1126.0 127.9L1125.5 143.6 M1126.5 260.7L1126.9 278.6 M1126.7 385.1L1125.9 419.9 M1129.1 1.2L1130.0 12.4 M1130.7 126.8L1130.6 144.4 M1129.8 230.5L1129.5 273.7 M1129.9 276.5L1130.3 278.2 M1128.8 384.9L1131.5 417.4 M1133.4 2.2L1133.6 10.5 M1133.6 129.5L1134.1 146.3 M1133.5 264.3L1135.2 279.7 M1134.8 384.0L1133.5 404.3 M1133.6 405.9L1134.2 418.9 M1138.3 0.1L1137.5 9.4 M1138.0 127.8L1138.1 149.5 M1138.4 209.7L1138.1 231.4 M1137.7 234.1L1138.1 256.9 M1137.6 264.0L1137.7 281.4 M1137.5 385.0L1138.4 417.8 M1141.8 0.7L1141.1 8.1 M1142.2 123.8L1142.3 144.2 M1142.1 145.9L1142.0 149.1 M1141.8 229.1L1142.2 233.3 M1142.0 266.5L1141.9 281.8 M1142.9 384.0L1142.3 418.5 M1146.0 1.9L1146.5 6.4 M1146.0 120.1L1146.2 147.3 M1145.3 213.3L1146.2 234.2 M1146.2 238.0L1146.1 259.6 M1146.1 262.4L1146.5 281.7 M1146.7 383.5L1145.9 417.4 M1150.1 118.5L1150.0 147.3 M1149.9 268.2L1150.5 285.0 M1150.6 384.6L1149.3 419.2 M1154.9 116.4L1154.1 146.1 M1153.8 220.8L1153.9 280.4 M1153.4 282.7L1154.3 283.9 M1153.3 383.7L1153.6 418.4 M1158.3 116.4L1157.9 144.7 M1158.6 269.3L1158.5 285.3 M1158.5 385.6L1157.1 418.7 M1161.7 116.4L1161.6 145.1 M1161.9 251.1L1162.7 285.0 M1161.7 383.6L1162.0 414.4 M1160.8 416.0L1161.9 418.1 M1165.9 115.9L1165.5 147.3 M1165.6 268.4L1165.8 283.6 M1166.7 383.7L1165.5 418.2 M1169.5 113.0L1170.8 140.1 M1170.2 143.2L1169.5 146.0 M1170.9 268.7L1170.7 284.5 M1169.1 385.4L1169.8 420.0 M1174.1 114.4L1173.7 147.1 M1174.6 267.4L1174.6 283.9 M1174.0 384.0L1174.3 417.0 M1177.7 115.2L1177.5 135.8 M1178.2 137.5L1178.3 149.2 M1178.0 268.3L1178.0 283.8 M1178.2 383.7L1179.0 419.9 M1181.4 115.3L1181.7 143.0 M1181.9 146.0L1182.3 151.0 M1183.1 264.4L1182.3 282.2 M1182.0 385.0L1181.2 417.8 M1186.0 117.7L1186.1 152.6 M1185.9 265.7L1187.1 280.8 M1185.9 334.2L1185.6 343.1 M1185.2 383.9L1185.8 415.8 M1189.9 115.8L1190.5 137.5 M1190.2 141.5L1189.6 154.4 M1189.9 262.4L1189.4 282.6 M1189.7 334.5L1190.6 350.9 M1190.0 384.2L1190.6 411.7 M1190.2 415.4L1189.8 419.5 M1193.5 114.3L1193.3 136.6 M1194.8 139.0L1193.7 155.7 M1195.0 261.3L1194.4 281.9 M1193.4 336.5L1194.0 357.9 M1193.8 384.5L1193.1 417.3 M1198.0 115.6L1199.2 158.8 M1197.3 259.5L1196.7 282.3 M1198.4 336.8L1197.7 358.1 M1197.9 384.2L1199.0 419.7 M1201.8 112.8L1202.2 161.3 M1201.9 260.0L1202.4 281.2 M1201.5 336.3L1201.9 357.9 M1202.1 375.8L1201.4 379.9 M1201.8 384.3L1202.0 415.3 M1201.9 418.1L1202.1 419.6 M1205.4 2.7L1205.2 5.3 M1206.5 110.9L1205.1 151.0 M1206.1 154.3L1204.7 162.8 M1206.2 263.9L1205.4 283.0 M1205.9 338.9L1206.4 358.8 M1206.4 368.0L1206.1 419.1 M1209.4 1.4L1210.2 7.5 M1210.2 104.0L1210.2 158.4 M1209.5 160.4L1210.2 160.7 M1209.9 262.2L1209.8 285.0 M1209.4 342.1L1209.4 359.8 M1209.7 368.1L1209.3 409.7 M1210.3 413.0L1210.8 418.6 M1213.8 2.5L1213.3 11.2 M1214.0 101.9L1213.4 135.6 M1214.0 138.0L1213.9 158.4 M1214.5 160.0L1212.4 160.0 M1213.6 267.5L1212.5 285.9 M1214.6 342.8L1213.9 358.6 M1213.6 368.5L1214.3 410.7 M1213.9 412.9L1213.5 419.0 M1217.8 1.7L1218.5 14.4 M1218.4 98.9L1217.4 151.8 M1218.4 155.3L1218.8 160.8 M1217.5 268.8L1217.6 287.4 M1217.1 347.7L1218.0 358.7 M1218.2 369.3L1218.3 415.6 M1218.0 419.0L1219.1 419.9 M1220.7 0.3L1221.4 16.1 M1222.8 95.6L1221.9 139.5 M1222.1 142.0L1222.7 160.1 M1221.9 272.1L1222.2 288.1 M1222.8 352.7L1221.9 360.0 M1222.2 385.4L1222.6 417.9 M1225.5 2.8L1225.4 17.3 M1226.6 94.9L1226.1 139.1 M1225.1 141.8L1225.2 159.5 M1226.1 275.1L1225.7 288.3 M1225.6 385.8L1226.4 419.5 M1231.0 1.3L1230.8 16.4 M1229.2 89.8L1229.4 128.0 M1230.5 145.5L1229.8 160.7 M1229.8 276.8L1231.2 290.2 M1229.7 383.2L1229.7 419.3 M1233.7 0.2L1234.5 18.6 M1234.4 87.9L1233.9 121.1 M1234.5 147.0L1234.1 161.7 M1234.1 277.8L1233.9 292.1 M1233.6 383.6L1234.2 419.7 M1237.9 2.7L1237.4 16.6 M1236.7 85.2L1237.7 118.5 M1238.9 148.7L1237.3 163.6 M1237.9 277.1L1238.5 291.9 M1238.2 385.2L1237.7 417.6 M1242.1 2.7L1241.4 17.0 M1241.5 83.9L1241.2 105.4 M1242.4 107.0L1241.5 115.3 M1242.2 148.2L1241.6 164.9 M1242.2 277.7L1242.1 294.3 M1241.5 383.8L1241.4 419.9 M1246.4 1.5L1246.0 16.2 M1245.5 83.5L1246.3 106.8 M1245.8 108.7L1245.0 112.2 M1245.9 151.3L1245.7 167.4 M1246.7 278.2L1246.4 293.6 M1246.4 384.4L1246.4 416.1 M1250.0 1.5L1249.9 15.6 M1250.8 80.6L1249.3 110.1 M1250.0 154.5L1250.5 169.3 M1250.2 277.4L1250.0 293.4 M1249.6 384.6L1251.1 417.0 M1254.4 0.7L1254.5 16.9 M1254.4 79.4L1254.7 100.4 M1253.5 103.6L1253.8 108.5 M1254.4 154.9L1254.1 173.8 M1253.9 278.5L1253.7 297.0 M1253.4 385.3L1253.8 411.4 M1254.2 413.6L1254.6 419.0 M1258.6 1.8L1257.9 14.2 M1258.3 78.5L1257.9 107.8 M1258.6 156.8L1258.5 177.3 M1258.2 278.0L1258.5 294.3 M1258.2 384.6L1257.4 417.1 M1261.7 0.7L1262.1 12.4 M1262.5 77.5L1262.1 105.0 M1261.9 158.6L1261.7 182.8 M1261.4 277.2L1261.7 297.3 M1262.4 385.7L1261.8 412.2 M1261.0 416.2L1262.4 419.8 M1266.2 1.2L1266.5 9.7 M1266.1 83.0L1265.8 95.4 M1266.6 157.8L1265.1 186.6 M1265.4 274.7L1265.4 297.4 M1266.2 383.9L1266.3 416.1 M1270.3 0.8L1268.7 8.6 M1270.4 141.8L1270.0 158.0 M1269.0 166.4L1270.6 190.8 M1269.7 279.3L1268.8 298.4 M1269.7 385.8L1269.8 408.4 M1270.0 411.7L1269.8 418.5 M1274.4 0.2L1273.3 5.3 M1274.7 130.0L1275.0 157.7 M1273.7 170.3L1274.9 192.7 M1274.4 283.7L1273.8 301.3 M1274.8 385.6L1273.1 418.5 M1278.2 1.5L1277.6 3.8 M1279.5 130.0L1278.3 154.1 M1277.8 173.5L1277.3 196.7 M1277.5 285.7L1277.3 302.9 M1278.7 385.3L1279.1 413.3 M1278.0 415.2L1277.9 417.7 M1282.4 0.0L1281.7 3.0 M1281.6 129.0L1282.7 154.3 M1281.4 176.5L1281.4 198.6 M1282.3 287.7L1282.0 302.7 M1281.9 383.4L1281.7 405.7 M1282.3 409.1L1281.8 420.0 M1286.7 128.3L1286.0 152.6 M1285.9 179.4L1286.3 204.4 M1285.8 290.0L1285.9 302.6 M1286.7 352.3L1285.8 359.8 M1286.4 383.7L1286.0 417.0 M1289.6 133.9L1289.7 152.7 M1289.7 185.0L1289.8 210.3 M1289.7 289.7L1290.5 304.4 M1289.6 351.9L1289.5 359.7 M1290.2 384.0L1289.8 409.8 M1289.8 413.5L1289.3 418.3 M1293.7 138.2L1295.0 147.9 M1293.9 188.6L1294.6 211.2 M1293.4 291.7L1293.6 306.4 M1294.0 348.4L1293.4 358.5 M1294.0 385.0L1293.6 407.1 M1294.5 410.4L1293.6 418.2 M1297.2 190.5L1298.0 210.0 M1298.8 291.0L1297.5 306.3 M1298.5 344.5L1297.9 359.8 M1299.0 385.2L1298.2 419.5 M1302.4 191.3L1301.9 209.1 M1301.8 290.3L1303.2 304.9 M1301.7 343.8L1301.7 359.1 M1302.7 385.9L1301.4 410.5 M1301.8 414.1L1302.5 417.8 M1305.8 194.5L1306.1 210.1 M1306.2 292.1L1305.3 306.2 M1306.1 341.0L1305.7 358.6 M1305.1 384.8L1305.4 407.6 M1306.2 410.3L1305.9 418.1 M1309.3 197.0L1309.2 212.6 M1310.5 290.5L1311.2 305.1 M1310.1 342.1L1309.7 358.9 M1309.7 383.5L1309.7 419.7 M1314.1 198.6L1315.1 213.4 M1314.5 289.2L1314.1 305.4 M1313.9 340.2L1314.0 360.0 M1313.4 385.5L1313.9 419.0 M1318.5 0.2L1318.0 4.2 M1317.9 197.8L1317.9 216.4 M1316.9 288.8L1317.5 303.7 M1317.6 340.5L1318.5 357.8 M1319.1 383.3L1318.1 410.5 M1318.0 414.2L1318.3 418.4 M1321.5 2.1L1322.7 4.6 M1320.9 200.1L1322.1 217.1 M1322.5 284.7L1322.8 302.1 M1322.5 338.1L1321.7 357.6 M1322.4 383.5L1321.9 417.3 M1326.9 2.7L1326.5 9.1 M1325.6 201.7L1325.9 219.3 M1325.9 281.1L1326.7 301.8 M1326.3 339.2L1326.2 358.8 M1325.8 384.4L1325.4 417.8 M1330.3 1.6L1329.7 12.9 M1330.2 201.4L1330.9 224.3 M1329.8 278.0L1329.4 300.9 M1329.7 338.6L1330.4 357.2 M1330.7 385.6L1330.3 419.9 M1334.3 0.6L1333.7 14.4 M1334.6 202.2L1334.3 229.2 M1333.8 276.9L1334.3 300.6 M1334.2 340.0L1333.9 360.0 M1334.6 383.1L1333.3 419.5 M1337.6 1.0L1338.4 16.7 M1338.6 202.1L1338.1 226.9 M1337.5 229.4L1337.1 239.9 M1337.5 279.2L1337.5 302.9 M1337.0 340.0L1338.0 357.8 M1338.6 384.3L1336.8 418.7 M1342.5 1.0L1342.3 18.5 M1341.8 201.5L1342.0 243.8 M1342.2 284.5L1342.1 300.2 M1341.6 338.8L1341.5 358.3 M1341.8 385.3L1341.6 419.3 M1344.9 2.7L1345.9 17.2 M1345.5 93.7L1345.1 107.0 M1345.6 199.2L1345.8 241.7 M1346.0 243.5L1345.8 243.6 M1345.9 286.5L1345.9 302.0 M1346.1 339.1L1345.2 357.3 M1347.2 383.1L1344.7 409.6 M1345.4 411.6L1346.4 419.1 M1349.3 0.6L1350.2 14.0 M1349.4 83.3L1349.7 106.1 M1349.5 196.0L1349.2 243.0 M1349.9 289.0L1349.9 303.0 M1349.0 339.7L1350.3 358.7 M1349.7 385.7L1349.4 407.0 M1350.5 410.1L1350.7 418.9 M1353.6 1.7L1355.5 14.5 M1354.8 73.7L1354.8 98.1 M1353.5 102.1L1354.0 103.5 M1354.0 192.3L1353.9 244.3 M1353.7 289.6L1353.5 300.1 M1353.3 341.1L1353.3 357.3 M1354.3 384.8L1355.0 410.4 M1354.0 413.6L1354.0 419.2 M1357.4 0.5L1357.3 13.8 M1358.2 65.2L1359.0 99.3 M1358.7 190.1L1357.4 224.4 M1357.2 226.7L1358.5 245.7 M1358.0 289.0L1358.1 302.8 M1358.2 344.1L1358.0 359.7 M1357.8 384.8L1357.1 408.6 M1357.9 411.1L1357.2 418.2 M1361.5 2.3L1361.0 12.5 M1362.3 60.8L1361.6 93.1 M1362.8 184.6L1362.0 205.5 M1362.3 209.3L1361.5 245.1 M1361.1 287.8L1360.8 300.5 M1361.8 347.3L1361.0 358.6 M1361.9 383.6L1362.0 414.6 M1361.5 417.4L1362.7 418.5 M1366.4 0.8L1364.6 12.1 M1366.1 56.2L1365.2 85.7 M1366.4 89.5L1366.6 89.7 M1366.7 182.0L1366.3 209.9 M1366.2 213.4L1365.8 238.2 M1365.5 241.6L1366.0 246.5 M1366.1 286.7L1365.1 299.6 M1365.9 356.2L1365.0 357.9 M1366.6 365.5L1366.2 378.4 M1365.7 385.3L1365.7 411.8 M1366.2 415.6L1366.0 419.0 M1369.7 2.9L1369.1 13.1 M1369.2 51.9L1370.4 87.2 M1370.1 177.8L1370.5 237.2 M1370.8 240.6L1369.5 244.6 M1369.9 283.6L1369.5 297.8 M1369.7 361.0L1369.9 400.7 M1369.5 403.7L1370.6 419.8 M1373.9 0.9L1374.4 14.8 M1374.4 50.9L1372.7 82.4 M1374.6 176.4L1375.0 196.4 M1374.1 207.3L1374.1 242.1 M1374.4 245.6L1374.5 249.6 M1374.1 280.4L1373.9 295.3 M1374.0 356.7L1373.2 407.2 M1374.1 409.2L1374.2 417.0 M1377.6 1.2L1378.6 16.7 M1378.3 45.1L1378.0 77.0 M1378.3 172.6L1378.2 191.2 M1378.3 196.8L1377.8 247.7 M1378.9 249.3L1378.0 254.6 M1377.5 273.6L1378.0 294.5 M1377.7 357.7L1376.8 390.4 M1378.3 392.5L1377.1 417.5 M1382.6 1.0L1381.7 22.1 M1382.1 42.2L1382.8 70.1 M1381.3 170.3L1381.6 188.2 M1382.4 214.5L1383.0 252.0 M1381.3 254.3L1380.4 292.5 M1381.8 354.1L1382.6 395.7 M1381.6 399.2L1382.0 419.6 M1386.4 1.9L1385.9 25.1 M1385.3 44.4L1385.8 62.7 M1386.8 169.6L1385.9 183.1 M1385.8 198.9L1385.3 237.2 M1386.0 241.2L1385.4 280.8 M1386.4 284.8L1386.2 286.3 M1386.3 356.3L1386.1 403.0 M1386.4 406.3L1385.8 419.5 M1389.8 2.5L1388.9 28.2 M1389.9 166.5L1389.5 182.9 M1389.8 228.0L1388.7 249.0 M1389.3 252.3L1390.3 273.9 M1389.4 277.5L1390.0 282.1 M1389.8 356.2L1390.2 393.4 M1389.7 395.3L1390.9 417.7 M1394.2 2.1L1395.1 22.7 M1394.5 165.6L1394.1 180.5 M1394.2 217.1L1393.9 276.2 M1394.1 358.5L1395.1 417.0 M1397.8 2.6L1397.6 24.3 M1398.3 165.2L1397.8 179.7 M1398.1 252.7L1398.9 275.4 M1397.7 364.3L1398.3 377.7 M1398.7 386.0L1397.8 417.0 M1402.7 1.6L1402.0 25.8 M1402.1 164.8L1402.0 178.2 M1401.6 218.5L1401.3 258.2 M1401.8 260.9L1402.4 271.5 M1402.3 384.9L1402.6 418.5 M1405.6 2.6L1406.6 25.9 M1406.2 161.7L1405.9 178.0 M1406.4 251.4L1405.2 270.8 M1406.0 384.3L1406.6 418.3 M1410.4 0.3L1409.5 26.4 M1410.2 162.9L1410.9 178.9 M1409.7 214.8L1408.9 236.0 M1409.6 252.4L1410.6 267.7 M1409.5 384.6L1410.6 411.5 M1409.9 414.4L1410.0 418.5 M1414.4 1.8L1414.0 24.3 M1413.9 159.9L1413.5 178.5 M1413.6 251.1L1414.9 268.2 M1414.0 385.2L1412.9 417.2 M1418.6 0.2L1418.3 26.8 M1417.6 160.9L1417.4 177.8 M1417.7 211.6L1417.7 240.6 M1418.1 252.3L1417.9 266.7 M1419.2 385.8L1418.0 409.9 M1418.2 412.9L1418.0 420.0 M1421.7 2.3L1422.2 24.1 M1421.7 159.6L1421.9 176.0 M1422.8 217.6L1422.1 224.2 M1422.8 251.1L1422.2 266.2 M1421.8 384.1L1423.1 418.0 M1426.1 0.8L1425.4 24.7 M1426.0 156.5L1425.7 174.4 M1425.7 209.9L1425.9 252.2 M1425.1 255.0L1425.7 266.3 M1425.3 384.2L1424.8 417.5 M1430.6 2.0L1429.9 24.8 M1430.0 157.4L1429.6 171.7 M1430.0 216.0L1430.2 223.5 M1429.4 249.2L1429.5 268.6 M1429.8 383.5L1431.4 417.9 M1433.5 0.9L1434.5 23.4 M1433.8 156.0L1433.8 171.4 M1434.0 205.7L1434.2 227.4 M1433.8 229.5L1434.1 247.5 M1433.3 249.6L1433.8 267.3 M1434.5 384.9L1434.2 419.4 M1438.9 2.6L1438.5 21.1 M1438.2 154.1L1438.4 170.9 M1438.6 251.7L1437.3 266.7 M1438.0 385.0L1437.9 418.5 M1441.9 1.5L1442.3 17.4 M1441.5 155.8L1441.4 168.5 M1442.2 203.6L1442.4 263.4 M1441.4 385.7L1442.2 418.8 M1445.9 1.4L1444.8 9.2 M1445.6 155.7L1445.8 169.8 M1444.1 251.6L1445.7 266.2 M1445.5 383.0L1446.2 417.0 M1449.8 1.6L1449.5 3.7 M1450.2 153.9L1449.0 169.2 M1450.5 204.1L1450.8 230.7 M1450.0 246.6L1449.9 266.4 M1450.6 384.4L1449.5 418.4 M1454.4 154.3L1452.9 168.3 M1454.0 251.9L1454.1 264.7 M1454.1 385.5L1453.2 419.0 M1458.2 155.8L1458.5 170.9 M1457.5 217.8L1458.2 265.0 M1458.0 385.1L1457.9 418.4 M1462.7 155.9L1462.4 171.7 M1461.8 248.8L1462.1 262.9 M1462.2 384.4L1462.6 405.7 M1461.2 409.0L1461.9 417.6 M1466.8 156.5L1466.5 174.1 M1466.0 225.1L1466.3 263.9 M1465.3 385.4L1465.6 419.3 M1469.9 157.0L1470.2 175.4 M1470.1 244.4L1469.7 263.4 M1469.7 383.5L1470.7 419.6 M1474.4 159.0L1473.6 177.2 M1473.9 228.9L1474.4 238.8 M1473.4 241.4L1474.0 260.4 M1474.1 385.9L1473.8 418.4 M1478.0 158.0L1477.6 177.4 M1479.3 242.3L1478.1 259.9 M1478.0 383.1L1477.2 417.5 M1482.7 160.8L1482.3 176.6 M1482.2 242.6L1481.4 258.7 M1483.2 384.3L1482.1 417.8 M1486.3 161.6L1486.4 176.7 M1485.6 244.5L1485.4 260.6 M1486.4 385.0L1484.6 418.7 M1490.2 162.3L1489.9 176.1 M1490.8 243.2L1489.5 257.2 M1489.8 383.5L1489.8 414.3 M1489.6 418.2L1490.2 419.6 M1494.7 163.1L1494.1 176.0 M1494.2 243.2L1494.0 258.2 M1493.9 383.7L1494.1 416.0 M1497.8 164.9L1498.7 176.8 M1498.1 242.5L1497.3 257.6 M1498.1 383.1L1497.7 410.3 M1498.1 412.2L1497.8 417.4 M1502.5 163.1L1501.8 178.7 M1502.3 242.0L1501.9 254.4 M1502.7 384.4L1501.4 419.2 M1506.2 166.9L1505.8 180.5 M1506.1 238.8L1507.1 254.3 M1506.2 384.4L1504.9 418.4 M1510.0 166.2L1511.1 184.7 M1510.3 236.4L1510.7 251.7 M1510.5 384.5L1509.5 410.1 M1509.7 413.0L1509.7 419.6 M1514.4 166.9L1513.8 185.5 M1513.7 232.5L1514.9 250.7 M1513.0 383.1L1513.3 418.9 M1516.8 166.6L1518.0 193.7 M1518.6 226.4L1517.5 250.0 M1518.4 384.9L1518.0 417.0 M1521.7 166.5L1522.3 193.3 M1521.7 194.9L1522.9 237.4 M1521.3 240.9L1522.5 247.7 M1522.5 385.4L1521.8 417.6 M1525.9 166.8L1527.0 219.3 M1526.4 221.5L1527.0 245.2 M1526.3 384.0L1526.1 405.9 M1526.3 409.5L1526.5 417.2 M1529.9 165.6L1530.2 224.7 M1530.1 226.9L1530.8 246.6 M1529.9 385.5L1529.5 419.7 M1533.6 164.3L1534.3 185.7 M1534.6 189.0L1534.9 241.3 M1533.6 242.9L1533.5 247.4 M1534.1 383.4L1534.1 418.6 M1538.3 165.0L1537.2 207.9 M1538.5 224.0L1538.2 250.7 M1538.7 385.9L1538.0 417.1 M1543.0 164.1L1542.3 184.9 M1541.9 188.0L1542.9 199.9 M1542.4 231.8L1542.3 250.1 M1541.2 384.0L1541.4 410.6 M1542.1 412.3L1542.3 419.1 M1545.9 164.3L1546.5 196.1 M1546.0 236.4L1545.4 252.1 M1545.2 383.3L1545.4 418.6 M1549.5 165.9L1549.4 191.3 M1550.0 240.6L1549.4 253.9 M1550.7 383.7L1550.3 418.5 M1553.8 164.2L1553.6 192.3 M1554.4 239.9L1553.1 255.4 M1554.1 384.1L1554.9 419.5 M1556.6 163.8L1558.2 191.4 M1558.6 242.1L1557.0 257.3 M1558.2 384.6L1557.9 416.5 M1562.6 164.7L1562.3 190.8 M1562.2 243.6L1562.1 258.1 M1562.3 385.7L1560.9 419.9 M1565.5 163.8L1565.2 191.5 M1566.4 242.8L1565.4 259.3 M1566.4 348.2L1566.4 358.7 M1566.1 385.6L1565.0 417.7 M1570.0 163.3L1569.0 191.0 M1569.6 241.2L1569.7 261.6 M1570.8 341.5L1569.6 359.1 M1570.6 385.1L1569.7 418.4 M1574.0 162.4L1573.8 193.1 M1573.8 244.6L1574.9 263.4 M1573.5 292.5L1573.8 307.7 M1574.3 334.9L1574.3 358.9 M1574.0 385.1L1573.6 414.1 M1573.4 416.7L1574.4 419.0 M1578.0 164.6L1576.4 197.4 M1578.2 251.1L1577.9 265.7 M1577.5 281.7L1577.8 340.1 M1577.6 343.5L1577.9 359.8 M1578.5 383.2L1578.0 419.5 M1582.9 162.6L1582.0 200.1 M1582.3 250.5L1582.1 264.8 M1582.1 277.8L1582.1 304.2 M1582.5 307.7L1582.1 334.0 M1581.7 336.5L1582.3 358.5 M1582.0 385.0L1581.4 418.0 M1586.1 164.8L1585.4 214.2 M1585.6 252.4L1585.1 264.9 M1586.0 274.2L1584.9 332.2 M1585.7 334.5L1585.5 358.3 M1585.0 383.1L1586.7 419.1 M1590.1 161.0L1589.8 181.7 M1589.9 184.0L1590.9 217.3 M1591.0 252.6L1589.4 265.1 M1590.7 272.9L1590.2 305.4 M1590.1 307.5L1589.7 331.7 M1589.5 334.0L1589.7 359.2 M1589.8 385.8L1590.7 418.7 M1593.7 162.2L1593.7 211.0 M1594.0 213.1L1593.8 218.1 M1593.7 251.9L1593.7 266.7 M1594.0 272.6L1593.1 299.4 M1594.1 302.0L1594.2 357.1 M1593.4 384.9L1593.4 417.3 M1597.7 161.0L1599.0 189.5 M1597.7 191.5L1597.8 213.8 M1598.0 215.5L1598.4 216.8 M1597.3 250.6L1597.9 265.4 M1597.6 270.7L1599.4 325.5 M1597.4 329.1L1597.1 357.5 M1597.6 383.4L1598.3 417.9"/>
<path stroke-width="1.2" stroke-opacity=".85" d="M176.9 224.2 L184.0 219.1 L192.0 215.3 L200.4 213.0 L209.1 212.1 M206.3 214.0 L212.5 207.8 L219.6 202.7 L227.5 198.8 L235.9 196.1 M252.1 173.5 L259.9 165.1 L268.9 157.9 L278.8 152.1 L289.5 147.7 L300.7 144.8 L312.1 143.6 M298.9 150.0 L312.3 141.1 L327.1 134.6 L342.8 130.9 L358.9 129.9 L374.9 131.8 M378.0 134.8 L390.1 129.7 L402.9 126.4 L416.0 125.0 L429.1 125.4 L442.1 127.7 L454.6 131.8 M455.4 134.4 L470.9 131.2 L486.8 130.8 L502.5 133.3 L517.5 138.7 L531.2 146.7 L543.3 157.0 L553.3 169.4 M558.4 180.6 L569.0 179.6 L579.8 180.2 L590.3 182.5 L600.3 186.3 L609.6 191.7 M614.2 193.2 L621.9 191.5 L629.8 191.1 L637.6 191.9 L645.2 194.1 L652.4 197.5 L658.8 202.1 L664.4 207.6 L669.1 214.0 M669.8 216.9 L677.3 217.4 L684.6 219.1 L691.6 221.8 L698.1 225.5 L704.1 230.1 L709.3 235.5 L713.7 241.6 M721.6 256.8 L725.9 260.0 L729.5 264.0 L732.3 268.6 L734.2 273.7 M944.1 242.4 L946.7 237.1 L950.3 232.4 L954.8 228.5 L960.0 225.6 L965.6 223.8 L971.5 223.1 L977.4 223.5 M980.6 222.7 L983.6 217.1 L987.4 212.1 L992.0 207.7 L997.2 204.1 L1002.9 201.3 L1009.0 199.5 L1015.2 198.6 M1015.3 196.7 L1020.0 189.2 L1026.1 182.8 L1033.3 177.7 L1041.4 174.0 L1050.0 172.0 M1053.3 167.9 L1059.5 159.5 L1067.1 152.2 L1075.8 146.5 L1085.4 142.4 L1095.6 140.1 L1106.1 139.7 L1116.4 141.1 L1126.4 144.3 L1135.6 149.3 M1144.2 148.8 L1156.4 146.9 L1168.9 147.5 L1180.9 150.6 L1192.1 156.1 L1201.8 163.7 M1204.8 163.5 L1211.2 161.9 L1217.7 161.2 L1224.3 161.3 L1230.8 162.2 L1237.1 164.0 L1243.1 166.5 L1248.8 169.9 L1254.0 173.9 L1258.6 178.6 M1264.0 187.5 L1270.4 190.8 L1276.2 195.0 L1281.3 200.1 L1285.6 206.0 M1293.1 212.4 L1299.3 211.8 L1305.5 212.1 L1311.6 213.4 L1317.3 215.7 L1322.7 218.8 L1327.5 222.7 L1331.6 227.4 M1343.6 224.9 L1344.7 222.1 L1346.2 219.5 L1348.2 217.2 L1350.5 215.2 L1353.0 213.7 L1355.8 212.6 L1358.8 212.0 L1361.8 211.9 L1364.7 212.3 L1367.6 213.2 M1379.1 191.0 L1382.9 187.5 L1387.2 184.7 L1391.8 182.4 L1396.7 180.7 L1401.8 179.7 L1406.9 179.4 L1412.0 179.8 L1417.1 180.9 L1421.9 182.6 M1420.0 178.9 L1426.9 174.1 L1434.7 170.8 L1443.0 169.2 L1451.5 169.3 L1459.7 171.2 L1467.4 174.8 L1474.1 180.0 M1472.8 181.6 L1478.5 178.8 L1484.6 177.2 L1490.9 176.9 L1497.2 177.7 L1503.1 179.8 L1508.6 183.0 L1513.3 187.1 L1517.2 192.2 L1519.9 197.8 L1521.6 203.9 M1536.9 210.5 L1538.5 205.7 L1541.0 201.2 L1544.4 197.4 L1548.5 194.4 L1553.1 192.2 L1558.1 191.1 L1563.2 191.0 L1568.2 191.9 L1572.9 193.9 L1577.1 196.8 L1580.6 200.5 L1583.3 204.9 L1585.0 209.7 M1588.4 220.1 L1592.0 219.0 L1595.7 218.4 L1599.4 218.5 M2.3 260.6 L4.5 258.4 L6.9 256.7 L9.6 255.2 L12.4 254.3 L15.4 253.7 L18.4 253.6 L21.4 253.9 L24.3 254.7 L27.1 255.9 L29.6 257.5 L31.9 259.5 L33.9 261.8 L35.5 264.3 M48.6 251.5 L51.3 248.3 L54.5 245.6 L58.1 243.3 L61.9 241.7 L66.0 240.7 L70.2 240.3 L74.4 240.6 L78.5 241.5 M81.5 230.8 L85.2 225.4 L89.7 220.6 L94.7 216.5 L100.4 213.2 L106.4 210.7 L112.8 209.1 L119.3 208.4 L125.8 208.7 L132.2 210.0 L138.4 212.1 L144.2 215.1 L149.5 219.0 L154.2 223.5 M157.9 225.9 L162.3 223.6 L166.9 221.9 L171.8 221.0 L176.8 220.7 L181.7 221.3 L186.6 222.5 M649.5 348.6 L650.5 345.1 L652.1 341.8 L654.4 339.0 L657.1 336.7 L660.3 334.9 L663.8 333.9 L667.4 333.6 L671.0 333.9 L674.4 335.0 L677.6 336.8 L680.3 339.2 L682.6 342.1 L684.1 345.3 M726.5 327.8 L728.2 326.0 L730.2 324.5 L732.4 323.3 L734.6 322.3 L737.1 321.7 L739.5 321.5 L742.0 321.5 L744.4 322.0 L746.8 322.7 L749.0 323.8 M753.2 314.9 L755.6 312.2 L758.4 309.9 L761.5 308.0 L764.9 306.7 L768.5 305.9 L772.1 305.6 L775.7 305.9 L779.2 306.8 L782.6 308.2 L785.7 310.1 L788.4 312.5 L790.8 315.3 M793.2 314.1 L796.7 309.7 L800.9 306.1 L805.8 303.3 L811.0 301.5 L816.6 300.7 L822.1 300.9 L827.6 302.1 L832.7 304.4 L837.3 307.6 L841.2 311.5 L844.3 316.2 L846.5 321.3 M845.9 320.4 L848.4 318.3 L851.2 316.6 L854.2 315.3 L857.3 314.5 L860.6 314.2 L863.8 314.5 L867.0 315.2 L870.0 316.5 L872.8 318.1 L875.3 320.3 L877.5 322.7 L879.2 325.5 L880.5 328.5 M894.6 334.1 L896.2 331.5 L898.3 329.3 L900.6 327.5 L903.3 326.0 L906.1 325.1 L909.1 324.6 L912.1 324.6 L915.0 325.1 L917.8 326.1 L920.5 327.5 L922.8 329.4 L924.8 331.6 L926.4 334.1 M965.7 342.9 L967.6 341.2 L969.8 339.7 L972.1 338.6 L974.6 337.8 L977.1 337.4 L979.7 337.4 L982.2 337.7 L984.7 338.3 L987.1 339.4 L989.3 340.7 L991.3 342.4 L993.0 344.3 L994.4 346.5"/>
<path stroke-width=".9" stroke-opacity=".5" d="M0 395.2 L40 394.9 L80 396.5 L120 398.2 L160 397.8 L200 399.6 L240 399.5 L280 399.3 L320 399.6 L360 399.3 L400 400.4 L440 398.3 L480 397.5 L520 395.4 L560 393.8 L600 393.7 L640 391.5 L680 390.2 L720 388.9 L760 389.2 L800 388.7 L840 388.0 L880 389.0 L920 388.5 L960 389.3 L1000 389.8 L1040 391.5 L1080 392.3 L1120 392.8 L1160 395.4 L1200 396.8 L1240 398.0 L1280 399.1 L1320 398.8 L1360 398.9 L1400 399.0 L1440 400.7 L1480 398.9 L1520 399.0 L1560 399.3 L1600 396.9 M0 407.9 L40 407.4 L80 407.6 L120 407.7 L160 407.3 L200 407.8 L240 406.1 L280 405.7 L320 403.2 L360 403.1 L400 401.3 L440 400.1 L480 399.4 L520 398.0 L560 397.8 L600 396.0 L640 396.4 L680 396.7 L720 396.4 L760 395.4 L800 397.7 L840 398.7 L880 398.9 L920 401.6 L960 402.3 L1000 403.7 L1040 404.1 L1080 405.1 L1120 406.9 L1160 407.5 L1200 408.7 L1240 407.5 L1280 407.4 L1320 407.3 L1360 406.6 L1400 405.8 L1440 404.3 L1480 402.4 L1520 401.5 L1560 400.5 L1600 399.5 M0 415.9 L40 414.9 L80 413.5 L120 412.6 L160 411.0 L200 410.0 L240 408.3 L280 408.1 L320 407.6 L360 405.7 L400 403.9 L440 404.4 L480 404.2 L520 404.5 L560 404.8 L600 405.1 L640 405.7 L680 407.5 L720 407.6 L760 409.4 L800 410.9 L840 412.0 L880 411.8 L920 414.4 L960 415.2 L1000 416.2 L1040 415.4 L1080 416.2 L1120 415.6 L1160 414.5 L1200 414.2 L1240 413.0 L1280 412.0 L1320 411.0 L1360 409.4 L1400 407.5 L1440 407.1 L1480 405.2 L1520 405.9 L1560 403.9 L1600 403.8"/>
</g>
</svg>